<svg width="121" height="121" viewBox="0 0 121 121" fill="none" xmlns="http://www.w3.org/2000/svg">
<path fill-rule="evenodd" clip-rule="evenodd" d="M55.0688 0.454731C44.3937 1.71961 35.969 4.69941 27.6907 10.1403C13.1394 19.705 4.06143 33.6423 0.987399 51.1398C0.259717 55.2826 0.194874 65.2405 0.867319 69.4734C4.09506 89.7824 16.7803 107.346 35.138 116.923C37.7894 118.306 42.7703 120.4 43.4091 120.4C44.2689 120.4 43.5484 117.2 42.0786 114.478C41.6919 113.763 40.3951 111.958 39.1991 110.473C36.3196 106.894 35.3998 105.529 33.978 102.73C31.7325 98.3073 30.5606 94.0319 30.2195 89.015C30.0731 86.8453 30.342 82.674 30.7263 81.1581C30.8656 80.6085 30.8271 80.5683 30.3084 80.7151C27.7795 81.4281 24.5302 83.856 22.8611 86.2839C22.4144 86.9329 21.9773 87.4659 21.8884 87.4682C21.533 87.4824 21.4081 84.3061 21.6747 82.0416C22.4912 75.1227 26.3554 67.5997 31.6365 62.6516C32.6379 61.7136 33.4545 60.849 33.4545 60.7258C33.4545 60.605 32.8325 60.271 32.0736 59.9868C30.1331 59.2573 26.9558 59.1128 24.3693 59.6339C23.2694 59.8565 22.2967 59.9679 22.2126 59.8826C21.7756 59.4515 24.4605 55.844 26.8213 53.6885C30.892 49.9696 35.9978 47.8805 41.6847 47.6057C42.7102 47.556 43.558 47.4186 43.57 47.3025C43.582 47.1865 42.7438 46.7885 41.7063 46.419C40.6689 46.0495 39.0646 45.4763 38.14 45.1423C31.771 42.8494 26.3002 36.6766 25.6253 31.0226C25.4116 29.22 25.7166 29.156 28.207 30.4801C32.465 32.7446 36.0098 33.8081 42.0618 34.6419C44.1968 34.9356 46.8938 35.4923 48.4836 35.9684C49.9894 36.4184 51.3055 36.7856 51.4064 36.7832C51.5072 36.7808 50.0183 35.2625 48.097 33.4078C43.2218 28.6989 41.2573 25.5912 40.323 21.1049C39.7298 18.2554 39.8523 14.6313 40.5536 14.366C40.7193 14.302 41.9201 15.304 43.2218 16.5902C45.8611 19.2005 47.0211 20.1077 51.7114 23.2367C58.7048 27.903 62.6242 32.1501 65.0762 37.7141C65.5109 38.6995 65.9672 39.5403 66.0945 39.5806C66.2194 39.6209 66.4427 39.0785 66.5916 38.3726C66.863 37.0793 66.6901 35.163 66.1257 33.2397C65.9288 32.5669 65.9456 32.3561 66.2218 32.0837C66.5124 31.7971 66.8414 31.8848 68.5633 32.7067C72.8189 34.739 76.186 38.9055 77.7926 44.1285C78.0448 44.948 78.4699 45.4952 79.6323 46.4948C82.6991 49.1335 84.5243 51.5448 87.7424 57.2202C88.9552 59.3591 90.4154 60.9509 91.8059 61.652C92.6128 62.0594 93.1604 62.1376 94.8847 62.0926C96.5563 62.0499 97.1134 62.1234 97.6298 62.4597C99.9425 63.9615 100.096 69.8287 97.918 73.4125C95.4083 77.5411 91.1047 79.7463 85.5738 79.7369C80.8427 79.7298 77.699 78.6544 71.2843 74.855C66.1137 71.7923 64.6367 71.2617 61.6972 71.4133C60.1049 71.4962 59.4973 71.6407 58.628 72.1429C53.611 75.0421 54.0505 81.62 59.5886 86.5018C60.47 87.2788 62.6338 88.8018 64.399 89.8843C66.1641 90.9692 69.2454 92.9162 71.2483 94.2119C80.5593 100.243 85.3456 107.747 84.6972 115.3C84.5939 116.515 84.6228 117.079 84.7909 117.079C84.9254 117.079 85.8908 116.615 86.9331 116.046C101.833 107.919 113.149 94.0129 117.849 78.0646C121.009 67.3345 121.24 55.9671 118.504 45.5331C114.028 28.4549 102.498 14.3613 86.5849 6.51619C77.9968 2.28098 70.8232 0.551846 61.3225 0.423937C58.3494 0.38367 55.5419 0.395517 55.0784 0.449997L55.0688 0.454731ZM69.207 54.0912C67.9317 54.2925 67.3169 54.5767 66.0561 55.5526C64.9057 56.4409 64.8409 57.026 65.9192 56.7915C67.2304 56.5072 69.8098 56.6375 71.0514 57.052C72.5932 57.566 74.6201 58.8996 75.4031 59.911C76.5966 61.453 77.0193 60.7235 76.3061 58.3548C75.4199 55.4129 72.3843 53.589 69.2094 54.0912H69.207ZM90.0576 68.2961C88.8664 69.2199 89.4283 70.184 91.1551 70.184C92.1566 70.184 93.0908 69.3123 92.9731 68.4904C92.8578 67.6897 90.999 67.5666 90.0576 68.2961ZM48.8319 91.8361C48.3347 93.1246 49.7949 95.5289 51.0725 95.5289C52.5399 95.5289 52.403 93.3402 50.854 91.9972C49.8309 91.1113 49.1321 91.0544 48.8319 91.8361ZM58.7528 96.3674C58.0948 98.0562 60.5372 100.996 61.6684 99.8801C62.3744 99.1837 62.0622 97.907 60.8782 96.654C60.189 95.9244 58.9882 95.7634 58.7528 96.3674ZM45.1815 100.614C44.4826 102.126 46.7929 105.063 47.9985 104.194C48.8439 103.585 48.2795 101.519 46.9971 100.524C46.1517 99.8683 45.5129 99.8991 45.1839 100.614H45.1815ZM55.6524 105.101C55.4579 105.866 56.2984 107.699 57.0741 108.199C57.4079 108.414 57.9315 108.557 58.2365 108.514C59.4229 108.348 58.8345 105.484 57.4632 104.762C56.6346 104.324 55.8085 104.478 55.6524 105.098V105.101ZM67.8453 105.525C67.132 106.228 68.0542 108.545 69.2982 109.18C71.2819 110.191 71.5149 107.244 69.572 105.736C68.8515 105.177 68.2703 105.105 67.8453 105.525ZM50.3137 111.446C49.3578 112.389 50.8756 115.395 52.319 115.419C52.9674 115.428 53.3877 114.99 53.3877 114.303C53.3877 113.417 52.4847 111.913 51.7162 111.522C50.8636 111.089 50.6859 111.079 50.3137 111.446ZM64.0027 114.289C62.8307 115.445 65.1651 119.024 66.5988 118.268C67.5691 117.757 67.0503 115.807 65.6262 114.625C64.8 113.941 64.435 113.865 64.0027 114.289Z" fill="white" fill-opacity="0.57" stroke="white" stroke-opacity="0.57" stroke-width="0.8" stroke-linejoin="round"/>
</svg>
