<svg width="139" height="189" viewBox="0 0 139 189" fill="none" xmlns="http://www.w3.org/2000/svg">
<path fill-rule="evenodd" clip-rule="evenodd" d="M29.3315 1.025C29.2003 1.04864 28.9917 1.12744 28.8679 1.19902C28.7441 1.2706 28.5758 1.42754 28.4944 1.54772C28.4129 1.66789 28.3142 1.87342 28.2758 2.0041C28.1705 2.36002 28.0672 5.29928 28.1136 6.60868C28.1573 7.83732 28.3798 9.93013 28.6474 11.6178C28.9619 13.6042 29.6454 16.334 30.2447 18.0019C31.0672 20.2891 31.8619 22.0477 32.9759 24.0433C33.2785 24.5851 33.7997 25.442 34.1348 25.9477C34.4699 26.4533 35.1044 27.3398 35.5448 27.9177C35.9852 28.4956 36.8216 29.5147 37.4037 30.1832C37.9858 30.8517 38.8302 31.754 39.2812 32.188C40.2229 33.0962 42.0402 34.7077 42.8157 35.3217C44.8064 36.8977 45.6918 37.5635 47.4223 38.7849C48.7601 39.7292 50.0852 40.7175 50.2263 40.8758C50.3515 41.0163 50.3515 41.0176 50.1852 41.0176C50.0932 41.0176 49.7236 40.931 49.364 40.8252C47.0024 40.1311 44.5395 39.6971 41.16 39.3792C38.8315 39.1599 36.1911 39.0128 32.8156 38.9143C30.3176 38.8414 29.0368 38.7731 27.2195 38.6182C25.0281 38.431 22.2957 38.06 20.6632 37.7271C19.4586 37.4815 16.9082 36.8379 15.7493 36.4866C15.2652 36.3402 14.4811 36.0847 14.0075 35.9199C12.6678 35.453 9.80685 34.2572 8.6181 33.6669C8.02605 33.3727 7.09094 32.8782 6.53995 32.5676C5.98895 32.257 5.40815 31.9457 5.24921 31.8761C5.07835 31.8012 4.81212 31.7494 4.59755 31.7494C4.32603 31.7494 4.16046 31.7927 3.94059 31.9201C3.76112 32.0245 3.579 32.2051 3.47304 32.385C3.33992 32.6109 3.29953 32.7672 3.29953 33.0561C3.29953 33.2637 3.36377 33.6806 3.44191 33.9834C3.83066 35.4871 5.03199 38.6523 5.76378 40.1016C6.18299 40.9316 6.95982 42.3402 7.53664 43.3166C8.03665 44.1631 9.05651 45.7017 9.61479 46.4516C10.5473 47.7039 12.1148 49.4926 13.3744 50.7416C14.087 51.4482 15.0122 52.317 15.4314 52.6722C15.8506 53.0275 16.6102 53.629 17.1201 54.0092C18.293 54.8839 20.2493 56.1638 21.3321 56.7646C23.0155 57.6991 25.1401 58.6979 26.6897 59.2843C27.7242 59.6757 30.2434 60.5333 31.2653 60.8419C31.7586 60.991 32.9798 61.3206 33.9792 61.5754C34.9785 61.8295 35.8752 62.0719 35.9712 62.1139L36.1467 62.1901L35.9712 62.2807C35.8746 62.3306 35.3487 62.4409 34.8024 62.5263C33.6388 62.7082 31.8216 63.0805 30.9282 63.3208C30.5825 63.4141 29.7235 63.6649 29.0195 63.8797C25.0281 65.0952 21.1433 66.8964 17.3499 69.29C16.2731 69.9696 15.6539 70.3939 15.0102 70.8929C13.0016 72.4512 11.1751 74.0088 10.2572 74.9466C9.56645 75.6525 8.14459 77.2488 7.50949 78.0329C6.4565 79.3318 4.95848 81.4535 4.22602 82.6854C3.56509 83.7959 2.63661 85.6004 2.16442 86.6911C1.92998 87.2329 1.58164 88.0899 1.38958 88.5955C1.14521 89.2403 1.03197 89.6435 1.00945 89.9463C0.98627 90.2621 1.00547 90.4315 1.08296 90.5793C1.26309 90.9247 1.5631 91.1703 1.90482 91.2511C2.14257 91.3075 2.30814 91.3082 2.55251 91.2544C2.7333 91.2143 3.49158 90.8919 4.23861 90.5366C4.98563 90.182 6.27372 89.6363 7.1022 89.3237C7.93068 89.0112 8.98698 88.6526 9.44989 88.5272C10.6731 88.1949 12.2175 87.862 13.4195 87.6729C14.8049 87.4542 16.734 87.3682 18.5202 87.4463C19.8089 87.5021 21.4765 87.684 22.2016 87.8482C22.3745 87.8876 22.5162 87.95 22.5162 87.9874C22.5162 88.0248 22.3765 88.1772 22.2063 88.3256C20.9844 89.3914 20.5188 89.8465 19.4394 91.0318C18.048 92.5605 17.1307 93.6578 16.1804 94.9324C15.5181 95.8202 13.9658 98.0923 13.3128 99.1292C12.8022 99.9402 12.0738 101.261 11.3883 102.618C10.689 104.004 9.77308 106.106 9.17307 107.705C8.75188 108.827 7.93598 111.389 7.68829 112.367C7.54525 112.933 7.02472 115.273 6.86313 116.077C6.69955 116.892 6.54591 118.076 6.31875 120.28C6.18034 121.621 6.12405 124.871 6.21743 126.127C6.29756 127.206 6.56776 129.676 6.68564 130.41C6.76577 130.907 7.15253 132.819 7.31611 133.524C7.37968 133.8 7.50286 134.103 7.61213 134.252C7.71478 134.392 7.91015 134.56 8.04658 134.624C8.1883 134.691 8.4532 134.742 8.66711 134.743C8.92274 134.745 9.12671 134.702 9.31744 134.605C9.47042 134.528 9.66778 134.368 9.75718 134.251C9.84592 134.133 10.0241 133.809 10.1526 133.531C10.6718 132.407 11.7545 130.766 12.9506 129.29C13.3228 128.83 14.1897 127.907 14.8771 127.239C15.5645 126.57 16.4473 125.784 16.84 125.493C17.5692 124.951 19.4115 123.825 19.5685 123.825C19.6162 123.825 19.6751 123.875 19.699 123.936C19.7228 123.997 19.6824 124.611 19.6096 125.299C19.3718 127.539 19.2466 129.478 19.2493 130.885C19.2513 132.155 19.2784 132.629 19.4784 134.89C19.6076 136.353 19.8056 138.038 19.9407 138.83C20.1745 140.203 20.4652 141.617 20.7632 142.836C21.0308 143.929 21.799 146.511 22.1308 147.433C22.6023 148.741 23.5546 151.05 24.144 152.315C25.6891 155.629 27.5573 158.697 29.9076 161.782C30.9063 163.093 32.2315 164.683 33.6004 166.213C34.1176 166.791 34.7805 167.545 35.0739 167.887C36.7487 169.846 38.162 171.739 39.1209 173.307C39.4295 173.811 39.9898 174.845 40.366 175.603C41.066 177.015 41.6428 178.468 41.9421 179.576C42.2044 180.547 42.4322 181.626 42.5878 182.63C42.6971 183.338 42.7395 184.005 42.7726 185.531L42.8157 187.514L43.007 187.712C43.1123 187.821 43.2779 187.938 43.3759 187.972C43.5031 188.016 43.6236 188.009 43.8031 187.947C43.9408 187.901 44.1276 187.793 44.219 187.709C44.3104 187.625 44.4528 187.423 44.5362 187.26C44.8852 186.579 45.0872 185.522 45.1448 184.075C45.1673 183.502 45.1521 182.768 45.1077 182.321C44.9296 180.521 44.4945 178.615 43.8985 177.02C43.6766 176.427 43.3057 175.519 43.0739 175C42.8421 174.482 42.4541 173.712 42.2123 173.288C41.5587 172.143 40.5229 170.52 39.8779 169.628C38.9163 168.298 37.6163 166.713 36.3236 165.293C35.4871 164.375 33.4765 162.026 32.811 161.189C31.6076 159.677 30.3964 157.991 29.452 156.514C28.9374 155.709 27.6076 153.355 27.1023 152.354C26.4063 150.975 25.1248 147.977 24.6632 146.647C23.7804 144.103 22.8811 140.609 22.5175 138.313C22.3049 136.97 22.0427 134.598 21.9791 133.446C21.8771 131.596 21.948 128.032 22.1215 126.321C22.2804 124.751 22.3824 123.991 22.6281 122.534C22.7864 121.595 22.7977 121.44 22.7215 121.189C22.6738 121.032 22.5275 120.799 22.3924 120.665C22.2453 120.519 22.0334 120.392 21.8579 120.346C21.6897 120.301 21.4387 120.286 21.2645 120.312C21.0983 120.336 20.6334 120.483 20.2321 120.638C18.7798 121.199 16.7857 122.279 15.583 123.157C15.2473 123.402 14.4983 124.01 13.9175 124.509C13.1691 125.151 12.5956 125.72 11.9446 126.464C11.44 127.041 10.7367 127.901 10.3817 128.373C10.0267 128.846 9.73599 129.253 9.73599 129.278C9.73599 129.347 9.4181 129.669 9.35055 129.669C9.16181 129.669 8.97572 128.079 8.86976 125.565C8.80883 124.115 8.80751 123.293 8.86446 122.117C8.934 120.69 9.04526 119.594 9.30818 117.75C9.52871 116.205 9.8148 114.827 10.3684 112.648C10.6241 111.642 11.24 109.755 11.7903 108.294C11.9804 107.789 12.4029 106.77 12.7287 106.029C13.9592 103.233 15.8479 99.8797 17.444 97.6562C19.0937 95.3586 20.1062 94.1247 21.7188 92.4475C22.8228 91.299 24.3003 89.9213 25.2646 89.1412C26.1308 88.4405 26.599 87.9894 26.7175 87.7418C26.7752 87.6216 26.8222 87.4378 26.8222 87.3334C26.8222 87.0497 26.5242 86.5138 26.2732 86.3457C25.8228 86.0443 23.8447 85.4743 22.2526 85.1874C21.4275 85.039 20.5228 84.9306 18.6433 84.7553C17.3102 84.6305 16.389 84.6706 13.9413 84.9575C13.3221 85.0304 12.4281 85.1637 11.9545 85.2543C10.0612 85.6162 7.68962 86.2833 6.09359 86.9032C5.67438 87.0661 5.21941 87.2211 5.08166 87.248C4.84788 87.294 4.83464 87.288 4.87371 87.158C4.95914 86.8757 6.01544 84.8301 6.4214 84.1623C7.21677 82.8529 8.33996 81.2263 9.12274 80.2498C9.55453 79.7107 10.1777 78.9595 10.5069 78.5806C11.2837 77.6855 13.344 75.6479 14.2724 74.8553C14.6731 74.5132 15.5321 73.8348 16.1817 73.3476C17.3625 72.4617 18.9652 71.3894 20.399 70.5259C21.3228 69.9697 23.2083 68.9952 24.7487 68.2774C26.0732 67.6608 28.1421 66.8511 29.6043 66.3783C30.607 66.0539 32.5507 65.5266 33.7434 65.2554C34.6229 65.0558 36.8984 64.6788 38.1474 64.5265C38.7481 64.4529 40.0448 64.3512 41.0282 64.2993C42.0117 64.2474 43.0104 64.1863 43.2468 64.1633C43.4832 64.1404 43.7706 64.078 43.8845 64.0248C43.9984 63.9716 44.1574 63.8593 44.2375 63.7746C44.4375 63.5638 44.517 63.181 44.4302 62.8526C44.3918 62.7082 44.2872 62.4934 44.1971 62.3759C44.107 62.2583 43.9163 62.1021 43.772 62.0292C43.2368 61.7586 41.7766 61.2116 40.2666 60.7158C39.4103 60.4348 38.0693 60.0381 37.2865 59.8333C36.5037 59.6284 35.5646 59.3762 35.2004 59.2731C34.8361 59.1694 33.8825 58.9028 33.0812 58.6801C31.4414 58.2251 29.7725 57.6597 27.9156 56.9314C27.2235 56.6602 25.8228 56.0298 24.803 55.5314C23.0599 54.679 21.6784 53.9074 20.5314 53.1464C19.6387 52.5534 18.0003 51.3116 17.0758 50.5262C15.0599 48.8143 12.7863 46.3564 11.3168 44.3017C10.6148 43.3199 9.62936 41.7735 9.11877 40.8541C8.35717 39.481 6.97969 36.4459 6.9075 35.981C6.87505 35.7741 6.87836 35.7708 7.07438 35.8266C7.18432 35.8582 7.40485 35.9593 7.56445 36.0519C8.09558 36.3605 10.7267 37.5084 12.1208 38.039C13.8539 38.6989 15.642 39.2656 17.3857 39.7063C18.8963 40.0884 21.1294 40.5186 22.9818 40.7839C24.7268 41.0341 25.9639 41.17 27.4851 41.2783C28.0129 41.3158 28.8176 41.3762 29.2732 41.4123C30.3156 41.4944 32.6282 41.5863 35.8626 41.675C39.0342 41.7616 40.1183 41.8273 42.4521 42.0755C43.4216 42.1786 45.5389 42.5129 46.823 42.7657C47.4601 42.8911 48.5038 43.1275 49.1409 43.2904C49.778 43.4532 50.925 43.7934 51.6892 44.0455C52.4535 44.2977 53.7647 44.7745 54.6031 45.1041C56.2866 45.766 56.6793 45.8514 57.1131 45.6465C57.2462 45.5841 57.4184 45.4443 57.4959 45.3366C57.5952 45.198 57.6363 45.0424 57.6363 44.802C57.6363 44.5906 57.5853 44.3647 57.5012 44.2005C57.427 44.0561 57.1449 43.687 56.8747 43.3803C56.3389 42.7729 54.5568 41.1115 53.2468 39.9978C52.7912 39.611 50.7203 38.0311 48.6442 36.4873C46.2216 34.686 44.4183 33.2912 43.611 32.5945C42.919 31.9969 41.7375 30.8924 40.9858 30.1399C40.2342 29.3873 39.2752 28.3623 38.8547 27.8625C37.9428 26.7784 36.6997 25.0684 35.9216 23.8266C35.2818 22.8062 33.7527 19.8347 33.4017 18.9305C33.2732 18.6002 32.9467 17.6795 32.6752 16.8849C32.1937 15.4764 31.8394 14.2372 31.6335 13.2404C31.4189 12.2029 31.1295 10.4725 31.0017 9.46455C30.8355 8.14726 30.7487 6.15492 30.8507 5.97828C30.9156 5.86533 30.9719 5.90604 31.4374 6.41102C31.7209 6.71835 32.2216 7.22858 32.55 7.54575C33.3361 8.30421 35.1765 9.88876 36.2838 10.7615C37.3871 11.6309 38.2726 12.2574 40.1872 13.5254C41.6097 14.4677 43.5792 15.6392 45.2011 16.5074C45.6018 16.7221 46.4362 17.1778 47.0554 17.5199C47.6746 17.8621 48.8667 18.4918 49.7044 18.9193C53.0939 20.647 55.8488 22.1593 58.1813 23.5718C59.7734 24.5358 62.1833 26.1217 63.4462 27.0371C64.7886 28.0096 66.2145 29.1411 67.486 30.243C68.0509 30.7322 69.1979 31.8124 70.0364 32.6438C71.5324 34.1278 72.9741 35.7406 73.9311 36.9995C75.0602 38.4849 76.0536 39.9459 77.0205 41.543C77.5702 42.4505 79.2285 45.7641 79.6331 46.7635C79.8086 47.1969 80.0397 47.8175 80.1463 48.1425C80.253 48.4676 80.4159 48.8419 80.5079 48.9752C80.6 49.1078 80.7795 49.2654 80.9066 49.3252C81.1669 49.4473 81.6026 49.4664 81.8656 49.3666C82.1497 49.2589 82.4967 48.9154 82.6132 48.6278C82.7662 48.2483 83.0901 46.5849 83.2113 45.5546C83.2676 45.0746 83.3325 44.1743 83.3556 43.555C83.3854 42.7447 83.3656 42.0611 83.2854 41.1155C83.2239 40.3931 83.1 39.33 83.0106 38.7534C82.9212 38.1762 82.7139 37.1104 82.551 36.3848C82.3881 35.6592 82.2543 34.9881 82.2543 34.8935C82.2543 34.7339 82.2682 34.7261 82.453 34.7786C82.894 34.904 85.0821 36.1615 86.4782 37.092C88.5543 38.4757 90.1703 39.812 91.9915 41.6507C92.6299 42.2955 93.4073 43.1183 93.7186 43.4795C94.2961 44.1493 95.1782 45.2939 95.8431 46.2375C96.6988 47.4517 97.7392 49.2241 98.3604 50.5276C99.4571 52.8259 100.058 54.4794 100.792 57.221C100.94 57.772 101.118 58.3334 101.189 58.4687C101.259 58.604 101.446 58.8345 101.604 58.9816C101.762 59.1287 102.219 59.4662 102.619 59.7315C103.02 59.9968 103.586 60.3927 103.878 60.6108C104.48 61.0619 105.872 62.1703 106.659 62.8251C107.281 63.3425 109.189 65.2488 109.84 66.0033C110.576 66.855 111.556 68.1966 112.203 69.2361C112.535 69.77 113.023 70.6197 113.289 71.1254C113.721 71.9482 114.433 73.4717 114.881 74.5322C115.165 75.2046 116.559 77.9259 116.922 78.5162C117.384 79.2688 118.258 80.4337 118.992 81.2762C120.03 82.4674 121.091 83.3999 122.38 84.2542C122.772 84.5136 123.359 84.8616 123.684 85.0265C124.009 85.192 124.492 85.4041 124.757 85.498C125.406 85.7278 126.403 85.9721 127.089 86.0699C127.399 86.1139 128.024 86.1494 128.48 86.1481C129.058 86.1468 129.621 86.0942 130.347 85.9734C130.918 85.8782 131.588 85.8007 131.837 85.8007C132.198 85.8007 132.367 85.8381 132.685 85.9905C133.184 86.2289 133.816 86.8632 134.132 87.4424C134.26 87.6768 134.458 88.103 134.572 88.3886C134.686 88.6743 134.865 89.2804 134.969 89.7348C135.074 90.1892 135.195 90.907 135.237 91.3292C135.286 91.8125 135.304 92.7371 135.283 93.8246C135.256 95.2883 135.225 95.6921 135.084 96.471C134.871 97.6464 134.712 98.2985 134.381 99.3649C133.87 101.011 133.026 102.88 132.08 104.459C131.839 104.861 131.326 105.608 130.94 106.117C130.554 106.626 129.894 107.393 129.475 107.822C129.055 108.251 128.429 108.837 128.083 109.124C126.413 110.511 124.346 111.643 122.255 112.318C121.439 112.581 120.24 112.875 119.242 113.057C118.57 113.179 118.139 113.206 116.458 113.231C114.674 113.256 114.368 113.245 113.478 113.118C112.933 113.039 112.174 112.917 111.792 112.845C110.748 112.649 109.092 112.226 108.05 111.89C106.978 111.545 105.691 111.054 104.499 110.536C102.711 109.757 99.9769 108.314 96.5266 106.325C94.404 105.102 92.2709 103.929 90.8312 103.195C89.7279 102.632 87.3212 101.612 85.9967 101.146C85.053 100.815 83.5954 100.378 82.9106 100.222C82.0305 100.021 80.8609 99.8548 79.341 99.7149C77.8033 99.5731 77.7695 99.5731 76.5265 99.6847C75.8344 99.7471 75.0152 99.841 74.7053 99.8929C73.2695 100.135 71.6629 100.61 70.388 101.168C69.9854 101.345 69.3628 101.653 69.0046 101.855C68.6463 102.056 68.0204 102.457 67.6138 102.745C65.8502 103.998 64.5873 105.334 63.3972 107.208C62.6515 108.382 61.9866 109.887 61.5654 111.354C61.3661 112.047 61.1621 113.356 61.0555 114.628C60.986 115.455 60.9906 115.719 61.0899 116.631C61.1528 117.209 61.2793 118.048 61.3707 118.495C61.5588 119.418 61.9946 120.809 62.3926 121.756C62.7641 122.642 63.1092 123.308 63.6608 124.205C64.4853 125.546 65.4794 126.803 66.7244 128.081C67.5039 128.881 69.3734 130.513 70.5006 131.378C70.9377 131.714 71.7423 132.296 72.2887 132.673C73.9 133.784 76.6933 135.571 78.547 136.678C79.1841 137.058 80.2569 137.715 80.9311 138.137C84.3497 140.28 84.7212 140.523 86.8994 142.058C88.3822 143.103 89.9934 144.352 91.1934 145.386C92.3815 146.411 94.7987 148.812 95.6882 149.85C96.6676 150.994 97.9584 152.687 98.6484 153.733C99.2749 154.682 100.364 156.623 101.005 157.935C101.509 158.968 102.295 160.919 102.743 162.25C103.013 163.054 103.501 164.806 103.735 165.816C103.95 166.743 104.206 168.307 104.353 169.595C104.444 170.39 104.468 171.143 104.466 173.072C104.462 175.751 104.389 176.813 104.076 178.686C103.979 179.264 103.766 180.267 103.602 180.914C103.439 181.562 103.154 182.55 102.972 183.111C102.789 183.672 102.378 184.797 102.06 185.611C101.743 186.425 101.464 187.186 101.441 187.3C101.411 187.454 101.435 187.552 101.535 187.678C101.609 187.771 101.734 187.882 101.812 187.924C101.89 187.965 102.051 187.995 102.17 187.991C102.615 187.974 103.153 187.587 103.724 186.876C103.938 186.608 104.278 186.113 104.478 185.774C104.68 185.436 104.995 184.81 105.18 184.385C105.364 183.959 105.633 183.257 105.776 182.823C105.92 182.39 106.167 181.517 106.326 180.884C106.794 179.018 107.004 177.577 107.196 174.943C107.268 173.943 107.287 173.155 107.256 172.382C107.153 169.749 106.824 167.252 106.253 164.765C106.001 163.668 105.54 162.04 105.211 161.087C104.669 159.519 103.979 157.884 103.217 156.359C102.424 154.775 101.731 153.58 100.683 151.993C99.9511 150.883 98.7869 149.336 98.016 148.447C96.6835 146.909 95.1623 145.306 94.3564 144.59C92.3623 142.819 90.5146 141.335 88.7782 140.11C87.5928 139.274 85.1013 137.61 83.8113 136.794C82.9437 136.245 82.1702 135.771 78.5225 133.56C77.7265 133.078 76.698 132.443 76.2377 132.151C74.2516 130.888 72.3476 129.524 70.9271 128.346C69.8589 127.461 68.2801 125.934 67.5721 125.103C67.2648 124.741 66.7165 124.004 66.3542 123.463C65.9919 122.923 65.5357 122.17 65.3403 121.789C64.9092 120.949 64.441 119.793 64.2098 118.997C64.1158 118.673 63.9615 117.979 63.8668 117.454C63.7264 116.674 63.6953 116.297 63.6953 115.384C63.6953 114.77 63.731 114.017 63.7741 113.709C63.8674 113.045 64.1006 112.103 64.3787 111.264C64.6423 110.471 65.3893 108.942 65.8522 108.249C66.0536 107.948 66.4112 107.463 66.6469 107.173C66.8827 106.882 67.3569 106.378 67.7012 106.052C68.0456 105.725 68.5847 105.267 68.8986 105.033C69.2125 104.8 69.7165 104.463 70.0178 104.285C70.6807 103.894 71.9013 103.346 72.8059 103.034C73.5774 102.768 74.7192 102.527 75.8947 102.384C76.349 102.328 77.2384 102.283 77.8708 102.283C79.4543 102.283 81.0914 102.486 82.6596 102.877C83.8272 103.168 85.204 103.614 86.4219 104.096C87.0252 104.335 88.3537 104.939 89.3736 105.437C90.3934 105.936 92.2259 106.909 93.4464 107.602C94.667 108.294 96.4246 109.292 97.3537 109.819C98.9564 110.73 101.114 111.848 102.42 112.445C102.748 112.595 103.284 112.841 103.612 112.992C104.999 113.628 107.763 114.61 109.152 114.959C110.139 115.206 112.213 115.584 113.262 115.707C114.705 115.876 116.168 115.959 116.887 115.914C117.904 115.849 119.258 115.696 120.133 115.547C121.025 115.396 122.35 115.056 123.359 114.722C123.751 114.592 124.444 114.325 124.9 114.13C125.829 113.731 126.861 113.175 127.851 112.542C129.214 111.668 130.665 110.45 131.705 109.305C132.113 108.856 132.614 108.282 132.818 108.029C133.333 107.391 134.142 106.196 134.641 105.337C134.871 104.939 135.206 104.304 135.386 103.925C136.406 101.765 137.042 99.9205 137.48 97.8506C137.703 96.8006 137.842 95.7821 137.955 94.3781C138.016 93.6217 138.016 93.1475 137.954 92.2768C137.91 91.6582 137.829 90.8282 137.775 90.4309C137.72 90.0343 137.574 89.3178 137.451 88.8398C137.327 88.3617 137.082 87.619 136.905 87.1896C136.728 86.7601 136.452 86.1796 136.29 85.8985C136.129 85.6181 135.806 85.1834 135.572 84.9332C135.338 84.683 134.97 84.3586 134.753 84.2129C134.294 83.9036 133.694 83.6232 133.18 83.4781C132.98 83.4216 132.579 83.3467 132.288 83.3113C131.883 83.2627 131.586 83.2699 131.032 83.3421C130.633 83.394 130.071 83.4807 129.783 83.5352C129.495 83.589 128.923 83.6337 128.513 83.6337C128.102 83.6337 127.52 83.5877 127.22 83.5312C126.92 83.4748 126.402 83.3388 126.07 83.2292C125.739 83.1195 125.124 82.8549 124.705 82.6401C124.286 82.4254 123.675 82.0531 123.347 81.8121C123.019 81.5711 122.338 80.9735 121.833 80.4843C121.329 79.9951 120.673 79.2937 120.376 78.926C119.779 78.1846 119.281 77.4176 118.521 76.0701C117.992 75.1317 117.555 74.2209 116.925 72.7388C116.42 71.5516 115.408 69.487 114.939 68.6885C113.928 66.9654 112.902 65.4957 111.894 64.3275C111.06 63.3602 109.397 61.7212 108.39 60.8741C107.231 59.8996 105.022 58.2664 103.994 57.6229C103.766 57.4811 103.531 57.29 103.47 57.198C103.41 57.1068 103.293 56.695 103.21 56.2833C103.04 55.4349 102.621 54.0545 102.095 52.6059C101.605 51.2551 101.331 50.5663 100.941 49.7041C100.539 48.8136 100.061 47.9521 99.2226 46.5993C98.4127 45.2932 97.9796 44.6536 97.2365 43.666C96.0603 42.1025 94.4054 40.2467 93.1007 39.0279C91.4352 37.4716 89.8921 36.2449 87.9822 34.9579C86.6 34.0267 84.7967 32.9728 83.6775 32.4428C83.1311 32.1841 82.2821 31.815 81.7901 31.6226C81.1636 31.3777 80.7755 31.2641 80.4934 31.245C80.1801 31.2234 80.0331 31.2464 79.8311 31.3495C79.6887 31.4223 79.4861 31.5714 79.3808 31.6811C79.2761 31.7907 79.1523 32.0245 79.1059 32.2012C79.0179 32.5367 79.0351 32.7048 79.2351 33.4639C79.2967 33.6984 79.5377 34.6151 79.7708 35.4996C80.1788 37.05 80.5139 38.6392 80.6616 39.7306C80.7636 40.4838 80.8742 42.4544 80.8265 42.6698C80.7927 42.8222 80.7709 42.8386 80.6987 42.767C80.6503 42.7191 80.5205 42.5017 80.4093 42.2844C80.1914 41.8556 79.6099 40.8187 78.9444 39.6701C78.7139 39.2729 78.2218 38.4901 77.851 37.93C77.1417 36.8602 75.5165 34.7182 74.6132 33.6616C73.6913 32.584 72.088 30.8228 71.6152 30.369C70.8887 29.6717 69.037 28.0392 67.9416 27.1303C67.386 26.6694 66.3933 25.8899 65.735 25.3987C64.3787 24.3868 61.0634 22.1449 59.9687 21.4987C58.3893 20.5676 56.8085 19.6646 55.8296 19.1347C55.2647 18.8293 53.3429 17.8174 51.5581 16.8856C49.7733 15.9544 47.8958 14.9688 47.3859 14.6963C45.7614 13.8268 42.9925 12.197 41.6031 11.2914C40.0997 10.3117 38.4136 9.06463 36.8441 7.7723C35.411 6.59226 32.3321 3.55647 31.2719 2.27859C30.4328 1.26666 30.2057 1.07491 29.7706 1.00924C29.6613 0.992822 29.4646 0.99873 29.3341 1.02303L29.3315 1.025ZM86.0265 70.6329C85.5345 70.6979 84.7795 70.8424 84.347 70.954C83.9152 71.0663 83.2563 71.2863 82.8828 71.4432C82.5093 71.6002 81.8861 71.916 81.4974 72.1459C81.1086 72.375 80.5457 72.7572 80.2463 72.9943C79.5536 73.5419 78.7404 74.347 78.2086 75.009C77.9801 75.2933 77.7238 75.6742 77.6391 75.8547C77.5543 76.0353 77.4841 76.2967 77.4841 76.4359C77.4834 76.6362 77.5298 76.7347 77.7086 76.912C77.8324 77.0348 78.0039 77.1385 78.0894 77.1425C78.4298 77.1576 78.651 77.1169 78.8735 76.9973C79.0013 76.9284 79.5086 76.5771 80 76.2159C80.6066 75.77 81.1709 75.4246 81.755 75.139C82.2285 74.9078 82.9027 74.6287 83.253 74.5184C83.6033 74.4081 84.1994 74.2505 84.5775 74.1691C85.1762 74.0397 85.4576 74.02 86.755 74.018C87.7623 74.0167 88.3954 74.0456 88.7086 74.1067C89.4517 74.2525 90.506 74.6149 91.2974 74.9978C91.7014 75.1935 92.304 75.5343 92.6372 75.7549C92.9703 75.9762 93.5736 76.4707 93.9776 76.8549C94.3815 77.2383 94.9054 77.7913 95.1418 78.0828C95.3782 78.3744 95.7206 78.8564 95.9027 79.1545C96.0848 79.4526 96.4272 80.1028 96.6623 80.5992C96.8974 81.0956 97.1564 81.6328 97.2372 81.793C97.318 81.9532 97.4663 82.1437 97.5663 82.2159C97.6902 82.3059 97.8517 82.3479 98.0729 82.3479C98.3246 82.3479 98.4511 82.3078 98.6345 82.1686C98.7716 82.0649 98.8955 81.9007 98.9279 81.7786C98.959 81.6623 98.9723 81.4049 98.9577 81.2066C98.9173 80.6649 98.6948 79.6254 98.4696 78.9293C98.1577 77.9633 97.7067 76.9731 97.2041 76.1502C96.9504 75.7352 96.5749 75.1882 96.3703 74.9354C96.1656 74.6826 95.7809 74.2623 95.5153 74.0016C95.0239 73.5183 94.0491 72.7204 93.5087 72.3593C92.9968 72.0172 91.9822 71.5108 91.3246 71.2692C90.9789 71.1425 90.461 70.9776 90.1742 70.9028C89.4987 70.7275 87.8656 70.5009 87.3351 70.5088C87.1073 70.5121 86.5186 70.5679 86.0265 70.6329ZM123.282 93.6584C122.956 93.707 122.523 93.7937 122.321 93.8502C121.754 94.0091 120.808 94.497 120.323 94.8805C120.081 95.0716 119.771 95.3605 119.634 95.5227C119.497 95.6849 119.301 95.9949 119.199 96.2116C119.097 96.4283 118.985 96.7842 118.95 97.0022C118.877 97.4579 118.94 97.894 119.132 98.2617C119.203 98.3983 119.376 98.6189 119.515 98.7529C119.655 98.8862 119.942 99.074 120.153 99.1692C120.364 99.2651 120.796 99.3885 121.113 99.4444C121.604 99.5304 121.798 99.5337 122.416 99.468C122.815 99.4253 123.366 99.3157 123.641 99.2244C123.916 99.1331 124.334 98.9571 124.571 98.8337C124.808 98.7102 125.172 98.4758 125.382 98.3129C125.591 98.1501 125.893 97.8506 126.054 97.6484C126.214 97.4455 126.425 97.1191 126.522 96.9228C126.619 96.7264 126.729 96.3915 126.767 96.1794C126.817 95.9016 126.815 95.6961 126.761 95.4459C126.719 95.2548 126.614 94.977 126.526 94.8286C126.439 94.6802 126.242 94.4471 126.09 94.3105C125.629 93.8981 125.175 93.7386 124.041 93.5915C123.95 93.5796 123.609 93.6098 123.283 93.6584H123.282ZM124.347 95.8898C124.445 95.9161 124.478 95.9647 124.455 96.0507C124.399 96.2641 123.789 96.7697 123.333 96.9818C122.993 97.1401 122.757 97.1966 122.272 97.2373C121.572 97.2957 121.302 97.2399 121.368 97.0515C121.451 96.8197 121.829 96.4913 122.27 96.27C122.517 96.1459 122.875 96.0028 123.065 95.9522C123.421 95.857 124.098 95.8248 124.347 95.8905V95.8898ZM50.4303 134.59C49.925 134.712 49.466 135.104 49.2322 135.612C49.1495 135.792 49.0515 136.16 49.0144 136.429C48.9614 136.816 48.968 137.034 49.0462 137.479C49.164 138.153 49.4667 139.054 49.7852 139.683C49.9131 139.936 50.1647 140.359 50.3448 140.623C50.6998 141.144 51.4528 141.919 52.0442 142.369C52.2495 142.525 52.5733 142.732 52.7641 142.827C52.9548 142.923 53.2813 143.045 53.4899 143.099C53.6985 143.153 54.0488 143.197 54.2694 143.197C54.5714 143.197 54.7667 143.151 55.0667 143.011C55.2892 142.906 55.5753 142.701 55.7171 142.546C55.8561 142.393 56.027 142.135 56.0972 141.973C56.2654 141.584 56.3734 140.89 56.3243 140.513C56.2416 139.878 56.0727 139.207 55.876 138.732C55.4959 137.815 54.8396 136.835 54.1429 136.144C53.9574 135.961 53.6177 135.67 53.3879 135.5C53.1581 135.329 52.7568 135.085 52.4958 134.959C52.2343 134.832 51.8435 134.685 51.6263 134.63C51.2117 134.525 50.7654 134.511 50.4316 134.591L50.4303 134.59ZM51.8594 137.158C52.317 137.45 53.123 138.315 53.4091 138.823C53.5455 139.065 53.7276 139.461 53.8137 139.703C53.9786 140.165 54.0137 140.536 53.9084 140.701C53.8508 140.791 53.825 140.788 53.6071 140.672C53.476 140.602 53.1098 140.276 52.7932 139.947C52.3674 139.503 52.1362 139.193 51.9018 138.749C51.5654 138.113 51.3349 137.522 51.2879 137.172C51.2627 136.988 51.2786 136.959 51.4018 136.959C51.4806 136.959 51.6859 137.049 51.8594 137.159V137.158ZM67.5992 142.145C67.4264 142.175 67.188 142.26 67.0694 142.333C66.743 142.534 66.4449 142.867 66.2992 143.196C66.2271 143.359 66.1337 143.688 66.0913 143.928C66.0337 144.258 66.0337 144.489 66.092 144.88C66.2569 145.982 66.5171 146.75 67.0224 147.627C67.4324 148.338 68.086 149.175 68.5244 149.549C69.1668 150.099 69.7966 150.478 70.3615 150.655C70.6536 150.746 71.0622 150.824 71.2701 150.826C71.7622 150.834 72.3615 150.611 72.7384 150.283C72.9046 150.137 73.0874 149.892 73.1688 149.705C73.3423 149.305 73.4609 148.521 73.4079 148.123C73.3092 147.381 73.1463 146.74 72.9105 146.168C72.7701 145.827 72.5218 145.337 72.3589 145.078C72.0026 144.512 71.4291 143.848 70.9092 143.399C70.4397 142.993 70.0681 142.738 69.6357 142.524C69.1781 142.297 68.7085 142.158 68.2781 142.121C68.0774 142.104 67.7721 142.114 67.5992 142.144V142.145ZM68.9456 144.768C69.4311 145.087 69.7933 145.424 70.143 145.882C70.5251 146.381 70.9456 147.217 71.0562 147.697C71.0979 147.879 71.1251 148.136 71.1158 148.27C71.1013 148.485 71.0821 148.51 70.945 148.485C70.7125 148.443 70.1893 148.037 69.7218 147.536C69.4926 147.291 69.1728 146.859 69.0112 146.579C68.6072 145.878 68.2953 144.778 68.4549 144.619C68.4794 144.595 68.5337 144.575 68.5761 144.575C68.6185 144.575 68.7847 144.662 68.9456 144.768ZM45.4634 149.56C45.3177 149.585 45.0799 149.663 44.9355 149.732C44.7912 149.801 44.5633 149.966 44.4302 150.098C44.2905 150.237 44.1349 150.488 44.064 150.691C43.966 150.969 43.9422 151.217 43.9481 151.865C43.9547 152.519 43.9905 152.815 44.1269 153.328C44.221 153.681 44.4309 154.248 44.5938 154.589C44.7567 154.93 45.0773 155.48 45.3064 155.812C45.5355 156.143 45.9183 156.608 46.1561 156.843C46.3945 157.078 46.7879 157.398 47.0309 157.555C47.274 157.712 47.7064 157.934 47.9912 158.049C48.4382 158.229 48.5912 158.258 49.1051 158.26C49.7753 158.262 50.0289 158.18 50.4223 157.838C50.5587 157.719 50.7455 157.474 50.8382 157.293C50.9309 157.112 51.0475 156.714 51.0972 156.408C51.1766 155.921 51.1753 155.766 51.0839 155.158C50.9243 154.095 50.5813 153.246 49.8972 152.226C49.7038 151.937 49.3965 151.528 49.215 151.317C49.0336 151.106 48.7111 150.786 48.4985 150.606C48.2859 150.427 47.923 150.174 47.6925 150.046C47.462 149.918 47.1044 149.761 46.8978 149.697C46.4382 149.556 45.8177 149.497 45.4627 149.56H45.4634ZM46.723 152.169C47.1614 152.456 47.7461 153.052 48.0799 153.553C48.4329 154.082 48.8011 155.014 48.8375 155.471C48.8508 155.636 48.8501 155.789 48.8362 155.812C48.8223 155.834 48.7329 155.837 48.6382 155.82C48.3925 155.773 47.3415 154.758 47.0263 154.263C46.8806 154.035 46.6846 153.661 46.5905 153.431C46.4004 152.966 46.2249 152.346 46.2249 152.134C46.2249 152.045 46.2673 151.995 46.3422 151.995C46.4064 151.995 46.5779 152.073 46.723 152.168V152.169ZM62.7913 156.269C62.633 156.3 62.3727 156.401 62.2138 156.493C62.0548 156.586 61.8502 156.758 61.7588 156.877C61.6674 156.995 61.5489 157.197 61.4952 157.324C61.3462 157.677 61.2979 158.461 61.3846 159.106C61.4264 159.42 61.5363 159.905 61.6284 160.187C61.8303 160.802 62.2754 161.747 62.5959 162.24C62.9734 162.82 63.7787 163.69 64.3092 164.089C64.5794 164.293 64.9562 164.536 65.1469 164.63C65.3376 164.725 65.6655 164.847 65.8754 164.902C66.0853 164.957 66.4443 165.003 66.6728 165.004C66.9747 165.005 67.184 164.962 67.4403 164.846C67.6337 164.758 67.9052 164.574 68.0436 164.437C68.182 164.299 68.3648 164.036 68.4503 163.851C68.5357 163.667 68.6357 163.302 68.6734 163.041C68.7198 162.718 68.7198 162.417 68.6734 162.094C68.5794 161.437 68.4449 160.889 68.2569 160.392C68.0403 159.821 67.7873 159.331 67.4655 158.857C67.0489 158.245 66.6436 157.801 66.1131 157.378C65.5032 156.891 64.4111 156.347 63.8741 156.262C63.4151 156.189 63.1926 156.19 62.7913 156.268V156.269ZM82.7874 157.321C82.6265 157.352 82.3834 157.451 82.2464 157.541C82.1093 157.631 81.9205 157.805 81.8258 157.928C81.7311 158.05 81.6099 158.281 81.5563 158.439C81.5026 158.597 81.4324 158.968 81.4 159.263C81.3569 159.652 81.3662 159.955 81.4338 160.379C81.5993 161.42 82.0007 162.426 82.6205 163.355C82.7782 163.591 83.0503 163.952 83.2265 164.157C83.5828 164.573 84.1616 165.093 84.5874 165.379C84.9417 165.618 85.7696 165.955 86.159 166.02C86.6451 166.101 87.1245 166.063 87.4298 165.921C87.9762 165.666 88.3404 165.211 88.5067 164.574C88.5629 164.359 88.6086 163.972 88.6086 163.713C88.6086 163.454 88.5629 162.983 88.5073 162.665C88.4517 162.348 88.2881 161.79 88.1437 161.426C87.9994 161.061 87.7411 160.516 87.5689 160.215C87.3967 159.913 87.0669 159.446 86.8358 159.178C86.6047 158.909 86.1921 158.513 85.9179 158.297C85.6444 158.082 85.1768 157.789 84.8788 157.647C84.3344 157.388 83.7537 157.243 83.3152 157.256C83.1854 157.26 82.9477 157.289 82.7868 157.321H82.7874ZM64.4257 158.926C64.6449 159.089 64.9721 159.392 65.1522 159.599C65.3323 159.806 65.5992 160.158 65.7456 160.384C65.892 160.608 66.0906 160.989 66.188 161.23C66.2853 161.47 66.382 161.854 66.4039 162.084C66.4376 162.444 66.4271 162.506 66.3257 162.545C66.2575 162.57 66.1078 162.537 65.9701 162.464C65.839 162.395 65.4992 162.107 65.2145 161.823C64.6774 161.287 64.2092 160.581 63.9681 159.943C63.7635 159.401 63.6482 158.917 63.6886 158.765C63.7118 158.677 63.7787 158.629 63.876 158.629C63.9595 158.629 64.2072 158.763 64.4264 158.926L64.4257 158.926ZM84.2987 159.937C84.4391 160.047 84.7921 160.387 85.0828 160.692C85.4894 161.118 85.6821 161.387 85.9153 161.858C86.2444 162.522 86.4431 163.185 86.4113 163.511C86.3987 163.639 86.3537 163.719 86.2914 163.722C86.2371 163.725 86.1086 163.686 86.0066 163.637C85.7265 163.501 84.8563 162.655 84.5285 162.199C84.3689 161.978 84.1682 161.638 84.0815 161.444C83.8702 160.97 83.5815 159.905 83.6219 159.751C83.649 159.647 83.6868 159.636 83.849 159.682C83.9563 159.712 84.1583 159.827 84.2987 159.938V159.937ZM54.6356 167.979C54.4349 168.023 54.1588 168.112 54.021 168.178C53.6389 168.361 53.3263 168.77 53.1641 169.298C53.0608 169.635 53.023 169.928 53.0243 170.383C53.027 171.075 53.1733 171.771 53.5124 172.701C53.6276 173.016 53.8866 173.547 54.0886 173.881C54.2899 174.214 54.617 174.679 54.8144 174.914C55.0124 175.148 55.3581 175.501 55.5833 175.696C55.8085 175.892 56.1866 176.176 56.4237 176.328C56.6601 176.479 57.033 176.671 57.2515 176.754C57.5555 176.871 57.7886 176.907 58.2449 176.911C58.7701 176.915 58.8813 176.895 59.18 176.739C59.3668 176.641 59.6403 176.425 59.7873 176.259C59.935 176.093 60.1038 175.818 60.1628 175.649C60.2217 175.479 60.2992 175.112 60.335 174.834C60.3846 174.446 60.3767 174.172 60.3005 173.669C60.2462 173.307 60.1257 172.787 60.0336 172.516C59.9416 172.244 59.7502 171.793 59.6085 171.513C59.223 170.755 58.6131 169.873 58.172 169.436C57.9568 169.222 57.5866 168.924 57.3495 168.772C57.1131 168.62 56.7191 168.405 56.474 168.293C55.7224 167.95 55.1879 167.859 54.6343 167.979L54.6356 167.979ZM55.9363 170.535C56.1495 170.691 56.5224 171.031 56.7641 171.29C57.2164 171.775 57.6495 172.507 57.8833 173.181C58.0343 173.617 58.1118 174.317 58.023 174.446C57.9826 174.505 57.9012 174.522 57.7952 174.496C57.5667 174.44 56.6647 173.59 56.3608 173.145C55.9714 172.577 55.5886 171.774 55.4018 171.135C55.3085 170.814 55.2316 170.53 55.2316 170.505C55.2316 170.44 55.427 170.251 55.4939 170.251C55.5237 170.251 55.723 170.379 55.9363 170.535ZM77.0682 172.424C76.8947 172.451 76.6192 172.537 76.4563 172.615C76.2933 172.694 76.0404 172.893 75.8933 173.059C75.7106 173.264 75.5801 173.506 75.4794 173.825C75.3589 174.206 75.3331 174.438 75.3371 175.111C75.3404 175.729 75.3768 176.061 75.4827 176.457C75.8178 177.704 76.4755 178.948 77.3119 179.917C77.5205 180.159 77.89 180.517 78.1338 180.713C78.3775 180.91 78.7404 181.161 78.9404 181.27C79.141 181.381 79.4795 181.52 79.6934 181.581C79.9073 181.641 80.2503 181.693 80.4556 181.695C80.6609 181.696 80.992 181.645 81.1907 181.579C81.4464 181.495 81.651 181.362 81.8914 181.123C82.2874 180.731 82.4676 180.316 82.5834 179.529C82.6437 179.118 82.6437 178.86 82.5815 178.384C82.5371 178.046 82.4126 177.504 82.304 177.179C82.1954 176.854 81.992 176.344 81.8523 176.046C81.7126 175.749 81.4285 175.247 81.2218 174.93C81.0099 174.606 80.5954 174.111 80.2728 173.797C79.9583 173.489 79.5073 173.127 79.2708 172.99C78.8397 172.741 78.0483 172.462 77.6159 172.405C77.4881 172.388 77.2417 172.396 77.0682 172.424V172.424ZM78.5424 175.354C78.8927 175.681 79.2901 176.136 79.5059 176.458C79.7079 176.759 79.9649 177.251 80.0775 177.552C80.241 177.989 80.2834 178.21 80.29 178.65C80.2973 179.133 80.2834 179.204 80.1788 179.22C80.0079 179.246 79.2927 178.681 78.9251 178.231C78.5748 177.801 78.1609 177.049 77.9079 176.383C77.7145 175.874 77.539 175.073 77.5788 174.882C77.5933 174.809 77.6079 174.747 77.6106 174.743C77.6132 174.739 77.69 174.75 77.7808 174.767C77.8715 174.784 78.2145 175.049 78.5424 175.355V175.354Z" fill="#3F3F3F" stroke="#3F3F3F" stroke-width="2" stroke-linejoin="round"/>
</svg>
