<svg width="182" height="38" viewBox="0 0 182 38" fill="none" xmlns="http://www.w3.org/2000/svg">
<g clip-path="url(#clip0_3_12)">
<path d="M17.5332 2.3256H17.3052C17.3432 2.394 17.3812 2.4624 17.4192 2.5384C17.4572 2.4624 17.4952 2.394 17.5332 2.3256Z" fill="white"/>
<path d="M20.6872 2.3408C20.634 2.3332 20.5732 2.3332 20.52 2.3332H20.4744C20.5048 2.394 20.5428 2.47 20.5808 2.5384C20.6188 2.47 20.6492 2.4016 20.6872 2.3408Z" fill="white"/>
<path d="M16.948 2.394C17.0316 2.3712 17.1152 2.356 17.1988 2.3484L17.2824 2.3256H17.3052C16.8644 1.52 16.4312 1.0412 16.3932 1.0032C16.2488 0.851202 16.0512 0.760002 15.8384 0.760002C15.6256 0.760002 15.4204 0.851202 15.2836 1.0032C15.2456 1.0412 14.8428 1.4744 14.4324 2.2268C14.6528 2.5384 14.896 2.8272 15.1392 3.0628C15.7168 2.774 16.3248 2.546 16.948 2.394Z" fill="white"/>
<path d="M19.5548 1.0032C19.4104 0.851202 19.2052 0.760002 19 0.760002C18.7872 0.760002 18.582 0.851202 18.4376 1.0032C18.4072 1.0412 17.9664 1.52 17.5332 2.3256L20.4744 2.3332C20.0336 1.52 19.5852 1.0412 19.5548 1.0032Z" fill="white"/>
<path d="M22.8456 3.0856C23.0964 2.8424 23.3472 2.5308 23.5828 2.2116C23.1572 1.4744 22.762 1.0412 22.724 1.0032C22.5796 0.851202 22.382 0.760002 22.1692 0.760002C21.9564 0.760002 21.7512 0.851202 21.6068 1.0032C21.5764 1.0412 21.1356 1.52 20.6872 2.3408C20.8164 2.3484 20.9456 2.3712 21.0748 2.4016C21.6904 2.5612 22.2832 2.7892 22.8456 3.0856Z" fill="white"/>
<path d="M37.1944 19.5016C37.1944 19.494 37.1868 19.4864 37.1868 19.4788C37.164 19.418 37.1336 19.3572 37.088 19.304C37.0424 19.2432 36.9892 19.19 36.9208 19.1444C36.6624 18.962 36.3204 18.9544 36.062 19.1292C35.7428 19.342 35.4312 19.5396 35.1272 19.7296C35.074 19.76 35.0208 19.7904 34.9752 19.8208C34.7396 19.9652 34.5116 20.102 34.2836 20.2236C34.1924 20.2768 34.1012 20.3224 34.01 20.3756C33.8352 20.4744 33.6528 20.5656 33.4856 20.6492C33.3868 20.7024 33.288 20.748 33.1968 20.7936C33.0372 20.8696 32.8852 20.938 32.7332 21.0064C32.642 21.0444 32.5432 21.09 32.452 21.1204C32.3 21.1812 32.1556 21.2344 32.0188 21.2876C31.9352 21.318 31.8516 21.3484 31.768 21.3788C31.6236 21.4244 31.4792 21.4624 31.3424 21.5004C31.274 21.5156 31.198 21.5384 31.1296 21.5536C30.9776 21.5916 30.8256 21.6144 30.6736 21.6372C30.628 21.6448 30.5748 21.6524 30.5292 21.66C30.5216 21.66 30.5064 21.66 30.4988 21.66C30.134 20.6492 29.6248 19.6916 28.9712 18.7872C29.1384 18.6352 29.3132 18.4604 29.488 18.2856C29.4956 18.278 29.4956 18.278 29.5032 18.2704C29.6704 18.1032 29.8376 17.9208 29.9972 17.7308C30.0352 17.6928 30.0656 17.6472 30.1036 17.6016C30.2328 17.4496 30.362 17.29 30.4912 17.1228C30.5368 17.062 30.5824 16.9936 30.6356 16.9328C30.7496 16.7808 30.856 16.6212 30.9624 16.4616C31.0156 16.3856 31.0612 16.3096 31.1068 16.2336C31.2056 16.074 31.2968 15.9068 31.388 15.7396C31.4336 15.656 31.4792 15.58 31.5172 15.4888C31.6084 15.3064 31.692 15.1164 31.768 14.9188C31.7984 14.8428 31.8288 14.7744 31.8592 14.6984C31.958 14.4248 32.0492 14.1512 32.1252 13.8624C32.148 13.7864 32.148 13.7104 32.148 13.6344C32.148 13.6268 32.1404 13.6192 32.1404 13.6116C32.1328 13.5432 32.1252 13.4748 32.1024 13.414C32.0796 13.3456 32.0416 13.2772 31.996 13.2164C31.9504 13.1556 31.8972 13.1024 31.8288 13.0568C31.6692 12.9428 31.4716 12.9048 31.2892 12.9352C31.236 12.9428 31.1828 12.9504 31.1372 12.9732C31.084 12.996 31.0232 13.0112 30.9776 13.0492C30.9396 13.0796 30.894 13.1024 30.856 13.1252C30.5596 13.3228 30.2784 13.4976 29.9972 13.6648C29.8756 13.7332 29.7616 13.8092 29.6476 13.8776C29.3512 14.0524 29.07 14.212 28.7888 14.3564C28.7052 14.402 28.6292 14.44 28.5456 14.4856C27.892 14.82 27.284 15.086 26.7292 15.2608C26.41 14.4856 26.1744 13.6952 26.0376 12.8744C26.1288 12.7604 26.2048 12.6388 26.2884 12.5248C26.3948 12.3804 26.5012 12.236 26.5924 12.0916C26.6988 11.9244 26.7976 11.7572 26.8888 11.5824C26.9724 11.4304 27.056 11.286 27.132 11.134C27.2156 10.9592 27.2916 10.7844 27.36 10.6096C27.4208 10.4576 27.4892 10.3132 27.5424 10.1612C27.6108 9.9788 27.664 9.7964 27.7172 9.614C27.7628 9.4696 27.8084 9.3328 27.8388 9.1884C27.8844 8.9908 27.9224 8.8008 27.9604 8.6108C27.9832 8.4816 28.0136 8.3524 28.0364 8.2232C28.0668 8.018 28.0896 7.8128 28.1124 7.6076C28.1276 7.4936 28.1428 7.3872 28.1504 7.2732C28.1656 7.0452 28.1732 6.8324 28.1808 6.612C28.1808 6.5284 28.1884 6.4372 28.1884 6.3536C28.1884 6.1104 28.1808 5.8748 28.1732 5.6392C28.1732 5.586 28.1732 5.5252 28.1656 5.4644C28.1504 5.206 28.1276 4.9552 28.1048 4.7044C28.1048 4.6816 28.0972 4.6512 28.0972 4.6284C27.93 3.1464 27.588 1.9988 27.4132 1.4972C27.36 1.3832 27.322 1.2768 27.3068 1.2464C27.2764 1.1628 27.2232 1.0868 27.1624 1.0184C27.0256 0.866404 26.828 0.760003 26.6152 0.752403C26.3188 0.752403 26.0224 0.927204 25.9008 1.2084C25.726 1.6188 25.3384 2.356 24.814 3.0856C24.8064 3.0932 24.8064 3.1008 24.7988 3.1008C24.6696 3.2756 24.5404 3.4504 24.396 3.6176C24.3884 3.6252 24.3808 3.6328 24.3732 3.6404C24.2288 3.8076 24.0844 3.9748 23.9248 4.1268L23.9172 4.1344C23.6056 4.4384 23.2712 4.6968 22.9292 4.8716C22.9216 4.8792 22.9064 4.8868 22.8988 4.8868C22.2376 4.4156 21.5004 4.066 20.6948 3.8608C20.634 3.8456 20.5656 3.838 20.5048 3.838L17.4876 3.8304C17.4344 3.8456 17.366 3.838 17.3052 3.8532C16.4996 4.0508 15.7396 4.3928 15.048 4.864C14.9492 4.8184 14.8504 4.7576 14.7516 4.6968C14.744 4.6892 14.7364 4.6892 14.7288 4.6816C14.7212 4.674 14.706 4.6664 14.6984 4.6588C14.6832 4.6436 14.668 4.636 14.6528 4.6284C13.5888 3.8912 12.768 2.5384 12.3652 1.7708C12.1904 1.4364 12.0916 1.216 12.084 1.2084C11.97 0.934804 11.6812 0.760003 11.3772 0.760003C11.0732 0.767603 10.7996 0.957603 10.6856 1.2464C10.6552 1.3376 10.3892 2.052 10.1612 3.1388C10.146 3.2224 10.1308 3.3212 10.108 3.4048C10.0852 3.5416 10.0548 3.6708 10.032 3.8076C10.0092 3.9672 9.98641 4.1344 9.96361 4.3016C9.94841 4.3852 9.94081 4.4688 9.92561 4.56C9.90281 4.7576 9.88761 4.9704 9.86481 5.1832C9.85721 5.2516 9.84961 5.3124 9.84961 5.3808C9.83441 5.6088 9.82681 5.8368 9.82681 6.0724C9.82681 6.1332 9.81921 6.194 9.81921 6.2624C9.81921 6.498 9.82681 6.7412 9.84201 6.9844C9.84201 7.0528 9.84961 7.1212 9.84961 7.1896C9.86481 7.4252 9.89521 7.6684 9.92561 7.9116C9.93321 7.9876 9.94081 8.0636 9.95601 8.1396C9.99401 8.3752 10.0396 8.6108 10.0928 8.8464C10.1156 8.9376 10.1308 9.0212 10.146 9.1124C10.1992 9.3328 10.2676 9.5608 10.3436 9.7812C10.374 9.8876 10.4044 9.9864 10.4424 10.0928C10.5184 10.298 10.602 10.5032 10.6932 10.716C10.7464 10.8376 10.792 10.9592 10.8452 11.0732C10.9364 11.2632 11.0428 11.4456 11.1492 11.6356C11.2252 11.7724 11.2936 11.9016 11.3772 12.0384C11.4836 12.2056 11.6052 12.3728 11.7268 12.5324C11.8104 12.6388 11.8712 12.7528 11.9624 12.8592C11.818 13.6648 11.5672 14.4704 11.2328 15.2532C10.678 15.0708 10.07 14.8048 9.40881 14.4628C9.34801 14.4324 9.28721 14.402 9.22641 14.364C8.94521 14.212 8.64881 14.0448 8.34481 13.87C8.23841 13.8092 8.12441 13.7332 8.01041 13.6724C7.72921 13.5052 7.44801 13.3228 7.15161 13.1328C7.11361 13.1024 7.06801 13.0796 7.03001 13.0568C6.77161 12.882 6.42961 12.8896 6.17121 13.072C6.11041 13.1176 6.04961 13.1708 6.00401 13.2316C5.95841 13.2924 5.92041 13.3532 5.89761 13.4292C5.87481 13.49 5.85961 13.5584 5.85961 13.6268C5.85961 13.6344 5.85201 13.642 5.85201 13.6496C5.84441 13.7256 5.85201 13.8016 5.87481 13.8776C5.95081 14.1664 6.04201 14.44 6.14081 14.7136C6.17121 14.7896 6.20161 14.858 6.23201 14.934C6.30801 15.124 6.39161 15.3216 6.48281 15.504C6.52081 15.5876 6.56641 15.6712 6.61201 15.7548C6.70321 15.922 6.79441 16.0892 6.89321 16.2488C6.93881 16.3248 6.99201 16.4008 7.03761 16.4768C7.14401 16.6364 7.25041 16.796 7.36441 16.948C7.41001 17.0088 7.45561 17.0772 7.50881 17.138C7.63801 17.3052 7.76721 17.4648 7.89641 17.6168C7.93441 17.6624 7.96481 17.7004 8.00281 17.746C8.17001 17.936 8.33721 18.1184 8.49681 18.2856C8.50441 18.2932 8.50441 18.2932 8.51201 18.3008C8.68681 18.4756 8.85401 18.6428 9.02881 18.8024C8.38281 19.6916 7.86601 20.6492 7.50121 21.6752C7.49361 21.6752 7.47841 21.6752 7.47081 21.6752C7.42521 21.6676 7.37201 21.66 7.32641 21.6524C7.18201 21.6296 7.03001 21.6068 6.87041 21.5688C6.80201 21.5536 6.72601 21.5308 6.65761 21.5156C6.52081 21.4776 6.37641 21.4396 6.23201 21.394C6.14841 21.3636 6.06481 21.3332 5.98121 21.3028C5.83681 21.2496 5.69241 21.1964 5.54801 21.1356C5.45681 21.0976 5.36561 21.0596 5.26681 21.0216C5.11481 20.9532 4.96281 20.8848 4.80321 20.8088C4.70441 20.7632 4.61321 20.7176 4.51441 20.6644C4.34721 20.5808 4.16481 20.482 3.99001 20.3908C3.89881 20.3376 3.80761 20.292 3.71641 20.2388C3.49601 20.1096 3.26041 19.9804 3.02481 19.836C2.97161 19.8056 2.92601 19.7752 2.87281 19.7448C2.56881 19.5624 2.25721 19.3572 1.93801 19.1444C1.87721 19.1064 1.80881 19.076 1.74801 19.0532C1.74041 19.0532 1.74041 19.0456 1.73281 19.0456C1.51241 18.9848 1.27681 19.0152 1.07921 19.1596C1.01841 19.2052 0.957606 19.2584 0.912006 19.3192C0.874006 19.3724 0.843606 19.4332 0.813206 19.494C0.813206 19.5016 0.805606 19.5092 0.805606 19.5168C0.782806 19.5776 0.775207 19.6384 0.767607 19.6992C0.767607 19.7144 0.760006 19.722 0.760006 19.7372C0.752406 19.8132 0.760007 19.8892 0.782807 19.9652C0.851207 20.2388 0.934806 20.5048 1.03361 20.7632C1.05641 20.824 1.08681 20.8848 1.10961 20.9532C1.18561 21.1432 1.26921 21.3332 1.35281 21.5156C1.39081 21.5916 1.42881 21.6676 1.46681 21.7436C1.55041 21.9108 1.64161 22.0704 1.73281 22.23C1.77841 22.306 1.82401 22.382 1.86961 22.458C1.96841 22.61 2.06721 22.7544 2.16601 22.9064C2.21921 22.9748 2.26481 23.0508 2.31801 23.1192C2.42441 23.2636 2.53841 23.408 2.65241 23.5448C2.70561 23.6056 2.75121 23.674 2.80441 23.7348C2.93361 23.8868 3.07041 24.0388 3.20721 24.1832C3.23761 24.2212 3.27561 24.2592 3.30601 24.2972C3.47321 24.472 3.64041 24.6392 3.80761 24.7988C3.88361 24.8748 3.95961 24.9356 4.03561 25.0116C4.12681 25.0952 4.21801 25.1788 4.31681 25.2624C4.40801 25.3384 4.49161 25.4144 4.58281 25.4828C4.65881 25.5512 4.74241 25.612 4.81841 25.6728C4.90961 25.7488 5.00081 25.8172 5.09201 25.8856C5.16801 25.9388 5.23641 25.992 5.30481 26.0452C5.38841 26.106 5.47201 26.1668 5.55561 26.2276C5.63161 26.2808 5.70761 26.334 5.78361 26.3872C5.85201 26.4328 5.91281 26.4784 5.98121 26.524C6.38401 26.79 6.71841 26.9952 6.95401 27.132C7.14401 28.5 7.60001 29.8072 8.26881 30.9928C8.04081 30.894 7.79761 30.7876 7.54681 30.666C7.47841 30.6356 7.41761 30.5976 7.34921 30.5672C7.17441 30.4836 6.99201 30.3848 6.80961 30.286C6.69561 30.2252 6.58921 30.1644 6.47521 30.1036C6.32321 30.02 6.17121 29.9288 6.01161 29.8376C5.87481 29.7616 5.74561 29.6856 5.60881 29.5944C5.45681 29.5032 5.29721 29.3968 5.13761 29.298C5.00841 29.2144 4.87921 29.1384 4.75001 29.0472C4.50681 28.8876 4.18761 28.88 3.93681 29.032C3.68601 29.184 3.54921 29.4728 3.57961 29.7616C3.80761 31.844 4.66641 33.4552 6.14081 34.5496C7.09841 35.264 8.20041 35.6668 9.26441 35.8948C10.1688 36.0848 11.0504 36.1532 11.7876 36.1532C11.818 36.1532 11.8484 36.1532 11.8788 36.1532C12.0156 36.1532 12.1448 36.1456 12.274 36.1456C12.3424 36.1456 12.4032 36.138 12.464 36.138C12.5856 36.1304 12.6996 36.1228 12.8136 36.1152C12.9048 36.1076 12.9808 36.1 13.0568 36.0924C13.0796 36.0924 13.1024 36.0848 13.1176 36.0848C13.3152 36.062 13.49 36.0468 13.604 36.0316C15.0708 36.7536 16.6972 37.1868 18.4148 37.2628C18.62 37.2324 18.81 37.24 19.0076 37.24C20.8924 37.24 22.762 36.822 24.4492 36.0012C24.4872 36.0088 24.5404 36.0088 24.5784 36.0164C24.6012 36.0164 24.6164 36.024 24.6392 36.024C24.7 36.0316 24.7608 36.0392 24.8292 36.0468C24.8824 36.0544 24.9432 36.0544 25.004 36.062C25.0876 36.0696 25.1788 36.0772 25.2776 36.0848C25.3612 36.0924 25.4448 36.0924 25.536 36.1C25.6044 36.1 25.6652 36.1076 25.7336 36.1076C25.8476 36.1152 25.9692 36.1152 26.0908 36.1152C26.1288 36.1152 26.1668 36.1152 26.2048 36.1152C27.0332 36.1152 28.044 36.0392 29.0624 35.7808C30.02 35.5452 30.9928 35.15 31.844 34.5116C33.3108 33.4096 34.1772 31.7984 34.4052 29.7236C34.4356 29.4272 34.2988 29.146 34.048 28.994C33.7972 28.842 33.478 28.8496 33.2348 29.0092C33.1208 29.0852 33.0144 29.1536 32.9004 29.222C32.718 29.3436 32.528 29.4576 32.3532 29.5716C32.262 29.6324 32.1708 29.678 32.0796 29.7388C31.882 29.8604 31.6844 29.9744 31.4944 30.0808C31.4184 30.1264 31.3424 30.1644 31.2664 30.21C31.0536 30.324 30.8408 30.438 30.6432 30.5368C30.6052 30.5596 30.5596 30.5748 30.5216 30.5976C30.2708 30.7192 30.0276 30.8332 29.792 30.932C30.4456 29.7312 30.8636 28.4392 31.0536 27.094C31.92 26.6 34.1392 25.2092 35.72 23.0508C35.7428 23.028 35.758 22.9976 35.7732 22.9748C35.91 22.7848 36.0316 22.5948 36.1608 22.3972C36.1912 22.3516 36.214 22.306 36.2444 22.2604C36.3584 22.0704 36.4648 21.8804 36.5636 21.6904C36.594 21.6372 36.6168 21.584 36.6472 21.5308C36.746 21.3256 36.8372 21.1204 36.9208 20.9076C36.936 20.862 36.9588 20.8164 36.9816 20.7632C37.0804 20.5048 37.164 20.2312 37.2324 19.9576C37.2552 19.8816 37.2552 19.8056 37.2552 19.7296C37.2552 19.7144 37.2476 19.7068 37.2476 19.6916C37.2248 19.6232 37.2172 19.5548 37.1944 19.5016Z" fill="white"/>
</g>
<path d="M178.54 26.2495C177.118 26.2495 176.029 25.8985 175.273 25.1965C174.535 24.4765 174.166 23.4505 174.166 22.1185V15.0175H171.925V12.4255H174.166V8.2135H177.163V12.4255H180.808V15.0175H177.163V21.5515C177.163 22.1815 177.307 22.6585 177.595 22.9825C177.901 23.3065 178.342 23.4685 178.918 23.4685C179.098 23.4685 179.296 23.4325 179.512 23.3605C179.728 23.2885 179.971 23.1535 180.241 22.9555L181.348 25.2505C180.88 25.5745 180.412 25.8175 179.944 25.9795C179.476 26.1595 179.008 26.2495 178.54 26.2495Z" fill="white"/>
<path d="M167.146 25.9255V12.4255H170.143V25.9255H167.146ZM168.658 9.8605C168.172 9.8605 167.749 9.6895 167.389 9.3475C167.047 8.9875 166.876 8.5645 166.876 8.0785C166.876 7.5925 167.047 7.1785 167.389 6.8365C167.749 6.4945 168.172 6.3235 168.658 6.3235C169.144 6.3235 169.558 6.4945 169.9 6.8365C170.26 7.1785 170.44 7.5925 170.44 8.0785C170.44 8.5645 170.26 8.9875 169.9 9.3475C169.558 9.6895 169.144 9.8605 168.658 9.8605Z" fill="white"/>
<path d="M157.09 26.2495C156.028 26.2495 155.11 26.0335 154.336 25.6015C153.58 25.1695 152.995 24.4945 152.581 23.5765C152.167 22.6585 151.96 21.4795 151.96 20.0395V12.4255H154.984V19.3375C154.984 20.3995 155.11 21.2275 155.362 21.8215C155.614 22.4155 155.956 22.8295 156.388 23.0635C156.838 23.2975 157.351 23.4145 157.927 23.4145C158.953 23.4325 159.745 23.0995 160.303 22.4155C160.861 21.7315 161.14 20.7505 161.14 19.4725V12.4255H164.137V25.9255H161.302L161.167 24.0085C160.735 24.7285 160.168 25.2865 159.466 25.6825C158.782 26.0605 157.99 26.2495 157.09 26.2495Z" fill="white"/>
<path d="M142.988 25.9255V12.4255H146.012V14.8825C146.552 14.0365 147.254 13.4065 148.118 12.9925C148.982 12.5785 149.873 12.3715 150.791 12.3715V15.2605C149.963 15.2605 149.18 15.3775 148.442 15.6115C147.722 15.8275 147.137 16.1875 146.687 16.6915C146.237 17.1955 146.012 17.8615 146.012 18.6895V25.9255H142.988Z" fill="white"/>
<path d="M129.514 25.9255V7.0255H141.259V9.8875H132.646V15.1795H140.017V18.0415H132.646V25.9255H129.514Z" fill="white"/>
<path d="M114.247 25.9255V12.4255H117.082L117.217 14.3425C117.649 13.6225 118.207 13.0735 118.891 12.6955C119.593 12.2995 120.394 12.1015 121.294 12.1015C122.374 12.1015 123.292 12.3175 124.048 12.7495C124.822 13.1815 125.407 13.8565 125.803 14.7745C126.217 15.6745 126.424 16.8535 126.424 18.3115V25.9255H123.4V19.0135C123.4 17.9335 123.274 17.1055 123.022 16.5295C122.788 15.9355 122.446 15.5215 121.996 15.2875C121.564 15.0535 121.051 14.9365 120.457 14.9365C119.449 14.9185 118.666 15.2515 118.108 15.9355C117.55 16.6195 117.271 17.6005 117.271 18.8785V25.9255H114.247Z" fill="white"/>
<path d="M105.308 26.2495C103.958 26.2495 102.752 25.9525 101.69 25.3585C100.646 24.7465 99.8272 23.9095 99.2332 22.8475C98.6392 21.7855 98.3422 20.5615 98.3422 19.1755C98.3422 17.7895 98.6302 16.5655 99.2062 15.5035C99.8002 14.4415 100.619 13.6135 101.663 13.0195C102.707 12.4075 103.904 12.1015 105.254 12.1015C106.604 12.1015 107.801 12.4075 108.845 13.0195C109.889 13.6135 110.699 14.4415 111.275 15.5035C111.869 16.5655 112.166 17.7895 112.166 19.1755C112.166 20.5615 111.878 21.7855 111.302 22.8475C110.726 23.9095 109.916 24.7465 108.872 25.3585C107.828 25.9525 106.64 26.2495 105.308 26.2495ZM105.308 23.4685C106.046 23.4685 106.703 23.2885 107.279 22.9285C107.855 22.5505 108.305 22.0465 108.629 21.4165C108.953 20.7685 109.115 20.0215 109.115 19.1755C109.115 18.3295 108.944 17.5915 108.602 16.9615C108.278 16.3135 107.828 15.8095 107.252 15.4495C106.676 15.0715 106.01 14.8825 105.254 14.8825C104.498 14.8825 103.832 15.0625 103.256 15.4225C102.68 15.7825 102.23 16.2865 101.906 16.9345C101.582 17.5825 101.42 18.3295 101.42 19.1755C101.42 20.0215 101.582 20.7685 101.906 21.4165C102.248 22.0465 102.707 22.5505 103.283 22.9285C103.877 23.2885 104.552 23.4685 105.308 23.4685Z" fill="white"/>
<path d="M89.3592 31.6765C88.4052 31.6765 87.5412 31.5955 86.7672 31.4335C86.0112 31.2715 85.3722 31.0825 84.8502 30.8665C84.3282 30.6505 83.9232 30.4435 83.6352 30.2455L84.7962 27.8155C85.0482 27.9415 85.3812 28.0945 85.7952 28.2745C86.2272 28.4725 86.7312 28.6435 87.3072 28.7875C87.8832 28.9315 88.5312 29.0035 89.2512 29.0035C90.0252 29.0035 90.7182 28.8415 91.3302 28.5175C91.9422 28.2115 92.4192 27.7345 92.7612 27.0865C93.1032 26.4385 93.2742 25.6105 93.2742 24.6025V23.2525C92.8062 24.0085 92.1942 24.6025 91.4382 25.0345C90.7002 25.4485 89.8542 25.6555 88.9002 25.6555C87.6762 25.6555 86.6052 25.3765 85.6872 24.8185C84.7872 24.2605 84.0762 23.4865 83.5542 22.4965C83.0502 21.4885 82.7982 20.3275 82.7982 19.0135C82.7982 17.6095 83.0502 16.3945 83.5542 15.3685C84.0762 14.3425 84.7872 13.5415 85.6872 12.9655C86.6052 12.3895 87.6762 12.1015 88.9002 12.1015C89.8542 12.1015 90.7002 12.3175 91.4382 12.7495C92.1942 13.1815 92.8062 13.8025 93.2742 14.6125V12.4255H96.2982V24.5215C96.2982 26.0515 96.0102 27.3475 95.4342 28.4095C94.8582 29.4895 94.0482 30.2995 93.0042 30.8395C91.9602 31.3975 90.7452 31.6765 89.3592 31.6765ZM89.7372 23.0905C90.4212 23.0905 91.0152 22.9105 91.5192 22.5505C92.0412 22.1905 92.4462 21.7045 92.7342 21.0925C93.0222 20.4625 93.1662 19.7425 93.1662 18.9325C93.1662 18.1045 93.0222 17.3845 92.7342 16.7725C92.4462 16.1425 92.0412 15.6565 91.5192 15.3145C90.9972 14.9545 90.3942 14.7745 89.7102 14.7745C88.9902 14.7745 88.3512 14.9545 87.7932 15.3145C87.2532 15.6565 86.8212 16.1425 86.4972 16.7725C86.1912 17.3845 86.0382 18.1045 86.0382 18.9325C86.0382 19.7425 86.1912 20.4625 86.4972 21.0925C86.8212 21.7045 87.2622 22.1905 87.8202 22.5505C88.3782 22.9105 89.0172 23.0905 89.7372 23.0905Z" fill="white"/>
<path d="M74.282 26.2495C72.662 26.2495 71.402 25.8895 70.502 25.1695C69.62 24.4495 69.179 23.4325 69.179 22.1185C69.179 20.7145 69.647 19.6435 70.583 18.9055C71.537 18.1675 72.86 17.7985 74.552 17.7985H77.981C77.873 16.8085 77.594 16.0525 77.144 15.5305C76.694 15.0085 76.028 14.7475 75.146 14.7475C74.498 14.7475 73.931 14.8825 73.445 15.1525C72.959 15.4225 72.545 15.8455 72.203 16.4215L69.557 15.4495C69.845 14.8555 70.223 14.3065 70.691 13.8025C71.177 13.2805 71.78 12.8665 72.5 12.5605C73.238 12.2545 74.12 12.1015 75.146 12.1015C76.46 12.1015 77.558 12.3625 78.44 12.8845C79.322 13.3885 79.97 14.1175 80.384 15.0715C80.816 16.0255 81.032 17.1775 81.032 18.5275L80.951 25.9255H78.17L78.089 24.2785C77.729 24.9085 77.225 25.3945 76.577 25.7365C75.947 26.0785 75.182 26.2495 74.282 26.2495ZM74.66 23.7115C75.326 23.7115 75.911 23.5675 76.415 23.2795C76.937 22.9735 77.333 22.5685 77.603 22.0645C77.891 21.5605 78.035 21.0025 78.035 20.3905V20.1205H75.524C74.318 20.1205 73.472 20.2915 72.986 20.6335C72.5 20.9575 72.257 21.4255 72.257 22.0375C72.257 22.5595 72.464 22.9735 72.878 23.2795C73.31 23.5675 73.904 23.7115 74.66 23.7115Z" fill="white"/>
<path d="M60.6664 25.9255V12.4255H63.6904V14.8825C64.2304 14.0365 64.9324 13.4065 65.7964 12.9925C66.6604 12.5785 67.5514 12.3715 68.4694 12.3715V15.2605C67.6414 15.2605 66.8584 15.3775 66.1204 15.6115C65.4004 15.8275 64.8154 16.1875 64.3654 16.6915C63.9154 17.1955 63.6904 17.8615 63.6904 18.6895V25.9255H60.6664Z" fill="white"/>
<path d="M43 25.9255V7.0255H48.94C50.794 7.0255 52.432 7.4305 53.854 8.2405C55.294 9.0325 56.419 10.1395 57.229 11.5615C58.057 12.9835 58.471 14.6215 58.471 16.4755C58.471 18.3115 58.057 19.9405 57.229 21.3625C56.419 22.7845 55.294 23.9005 53.854 24.7105C52.432 25.5205 50.794 25.9255 48.94 25.9255H43ZM46.132 23.0095H48.94C49.822 23.0095 50.65 22.8475 51.424 22.5235C52.198 22.1815 52.873 21.7135 53.449 21.1195C54.025 20.5255 54.475 19.8325 54.799 19.0405C55.123 18.2485 55.285 17.3935 55.285 16.4755C55.285 15.5575 55.123 14.7025 54.799 13.9105C54.475 13.1185 54.025 12.4255 53.449 11.8315C52.873 11.2375 52.198 10.7785 51.424 10.4545C50.65 10.1125 49.822 9.9415 48.94 9.9415H46.132V23.0095Z" fill="white"/>
<defs>
<clipPath id="clip0_3_12">
<rect width="38" height="38" fill="white"/>
</clipPath>
</defs>
</svg>
