<svg width="500" height="507" viewBox="0 0 500 507" fill="none" xmlns="http://www.w3.org/2000/svg">
<g clip-path="url(#clip0_66_12)">
<rect width="499.669" height="506.611" rx="140" fill="white"/>
<path fill-rule="evenodd" clip-rule="evenodd" d="M226.543 0.243916C179.572 5.88315 33.9244 -32.2572 -2.50001 -7.99998C-66.5254 34.6428 2.11019 148.205 -11.4156 226.215C-14.6174 244.685 -44.9588 481.129 -42 500C-27.798 590.545 58.073 476.802 138.847 519.497C150.513 525.665 172.429 535 175.24 535C179.023 535 175.853 520.733 169.386 508.599C167.684 505.41 161.978 497.363 156.716 490.742C144.046 474.785 139.999 468.702 133.743 456.22C123.863 436.503 118.706 417.442 117.206 395.075C116.561 385.402 117.745 366.805 119.436 360.046C120.048 357.596 119.879 357.417 117.597 358.072C106.47 361.25 92.1727 372.075 84.8287 382.899C82.8632 385.792 80.94 388.169 80.549 388.179C78.9851 388.243 78.4356 374.081 79.6086 363.985C83.2013 333.139 100.204 299.599 123.44 277.538C127.847 273.356 131.44 269.502 131.44 268.953C131.44 268.414 128.703 266.925 125.364 265.658C116.826 262.405 102.845 261.761 91.4648 264.084C86.6251 265.077 82.3454 265.573 81.9756 265.193C80.0524 263.271 91.8663 247.188 102.254 237.578C120.165 220.998 142.63 211.684 167.653 210.459C172.165 210.237 175.895 209.624 175.948 209.107C176.001 208.589 172.313 206.815 167.748 205.168C163.183 203.52 156.124 200.965 152.056 199.476C124.032 189.253 99.9606 161.733 96.9912 136.525C96.0508 128.489 97.3928 128.204 108.351 134.107C127.086 144.203 142.683 148.944 169.312 152.662C178.706 153.971 190.573 156.453 197.568 158.576C204.193 160.582 209.984 162.219 210.428 162.208C210.872 162.198 204.32 155.429 195.867 147.16C174.416 126.166 165.772 112.311 161.661 92.3092C159.051 79.6051 159.59 63.4478 162.676 62.265C163.405 61.9799 168.688 66.4469 174.416 72.1812C186.029 83.8187 191.133 87.8633 211.77 101.814C242.541 122.617 259.786 141.552 270.575 166.359C272.488 170.752 274.496 174.501 275.056 174.68C275.605 174.86 276.588 172.441 277.243 169.294C278.437 163.528 277.676 154.985 275.193 146.41C274.327 143.411 274.401 142.471 275.616 141.257C276.894 139.979 278.342 140.369 285.919 144.034C304.643 153.095 319.458 171.67 326.528 194.956C327.637 198.61 329.507 201.049 334.622 205.506C348.116 217.27 356.147 228.021 370.307 253.323C375.643 262.859 382.068 269.956 388.186 273.082C391.736 274.898 394.146 275.247 401.733 275.046C409.087 274.856 411.539 275.183 413.811 276.683C423.987 283.378 424.663 309.536 415.079 325.514C404.036 343.921 385.1 353.752 360.765 353.71C339.948 353.678 326.115 348.884 297.891 331.945C275.14 318.291 268.641 315.925 255.707 316.601C248.702 316.971 246.028 317.615 242.203 319.854C220.128 332.779 222.062 362.106 246.43 383.871C250.308 387.334 259.829 394.125 267.595 398.951C275.362 403.787 288.92 412.468 297.732 418.245C338.701 445.131 359.761 478.586 356.908 512.263C356.453 517.681 356.58 520.194 357.32 520.194C357.912 520.194 362.159 518.125 366.745 515.59C432.303 479.357 493.32 578.857 514 507.754C527.906 459.916 517.695 247.737 505.659 201.218C485.962 125.078 572.791 26.976 502.774 -7.99998C464.987 -26.8819 295.862 0.676887 254.059 0.106627C240.977 -0.0728998 228.624 -0.0200816 226.585 0.222807L226.543 0.243916ZM288.751 239.373C283.139 240.271 280.434 241.538 274.887 245.889C269.825 249.849 269.54 252.457 274.284 251.412C280.054 250.145 291.403 250.725 296.866 252.573C303.65 254.865 312.568 260.811 316.013 265.32C321.265 272.195 323.125 268.942 319.987 258.382C316.087 245.266 302.731 237.134 288.761 239.373H288.751ZM380.493 302.704C375.252 306.822 377.725 311.12 385.322 311.12C389.729 311.12 393.839 307.234 393.322 303.569C392.814 300 384.635 299.451 380.493 302.704ZM199.1 407.652C196.913 413.397 203.338 424.116 208.959 424.116C215.416 424.116 214.813 414.358 207.998 408.371C203.496 404.421 200.421 404.168 199.1 407.652ZM242.752 427.854C239.857 435.384 250.604 448.489 255.581 443.516C258.687 440.411 257.314 434.719 252.104 429.132C249.071 425.88 243.788 425.162 242.752 427.854ZM183.038 446.789C179.963 453.527 190.129 466.622 195.433 462.746C199.153 460.032 196.67 450.823 191.027 446.388C187.307 443.463 184.497 443.6 183.049 446.789H183.038ZM229.11 466.791C228.255 470.202 231.953 478.375 235.366 480.604C236.835 481.565 239.138 482.198 240.48 482.008C245.701 481.269 243.112 468.501 237.078 465.28C233.432 463.327 229.797 464.013 229.11 466.78V466.791ZM282.759 468.681C279.621 471.817 283.678 482.145 289.152 484.976C297.88 489.485 298.905 476.348 290.357 469.621C287.187 467.129 284.629 466.812 282.759 468.681ZM205.62 495.082C201.414 499.285 208.093 512.686 214.443 512.792C217.297 512.834 219.146 510.88 219.146 507.818C219.146 503.868 215.173 497.162 211.791 495.42C208.04 493.487 207.258 493.445 205.62 495.082ZM265.852 507.754C260.695 512.908 270.966 528.864 277.275 525.496C281.544 523.215 279.261 514.523 272.995 509.254C269.36 506.202 267.754 505.864 265.852 507.754Z" fill="#AA0276" stroke="#AA0276" stroke-width="0.8" stroke-linejoin="round"/>
</g>
<defs>
<clipPath id="clip0_66_12">
<rect width="499.669" height="506.611" rx="140" fill="white"/>
</clipPath>
</defs>
</svg>
