<svg width="184" height="41" viewBox="0 0 184 41" fill="none" xmlns="http://www.w3.org/2000/svg">
<path fill-rule="evenodd" clip-rule="evenodd" d="M18.6229 0.418237C15.0646 0.839863 12.2563 1.83313 9.49688 3.64675C4.64647 6.835 1.62046 11.4808 0.595785 17.3133C0.353225 18.6942 0.33161 22.0135 0.555759 23.4245C1.63167 30.1941 5.86007 36.0487 11.9793 39.2409C12.8631 39.702 14.5234 40.4 14.7363 40.4C15.0229 40.4 14.7828 39.3333 14.2929 38.4261C14.164 38.1877 13.7317 37.586 13.333 37.091C12.3732 35.8979 12.0666 35.4431 11.5927 34.5099C10.8442 33.0358 10.4535 31.6106 10.3398 29.9383C10.291 29.2151 10.3807 27.8247 10.5087 27.3194C10.5552 27.1362 10.5424 27.1228 10.3695 27.1717C9.5265 27.4094 8.44338 28.2187 7.88701 29.028C7.73811 29.2443 7.59242 29.422 7.5628 29.4227C7.44432 29.4275 7.40269 28.3687 7.49155 27.6139C7.76373 25.3076 9.05178 22.7999 10.8121 21.1505C11.146 20.8379 11.4181 20.5497 11.4181 20.5086C11.4181 20.4683 11.2108 20.357 10.9578 20.2623C10.311 20.0191 9.25192 19.9709 8.38975 20.1446C8.0231 20.2188 7.69889 20.2559 7.67087 20.2275C7.52517 20.0838 8.42017 18.8813 9.20709 18.1628C10.564 16.9232 12.2659 16.2268 14.1616 16.1352C14.5034 16.1186 14.786 16.0729 14.79 16.0342C14.794 15.9955 14.5146 15.8628 14.1688 15.7397C13.8229 15.6165 13.2882 15.4254 12.98 15.3141C10.857 14.5498 9.03337 12.4922 8.80842 10.6075C8.73717 10.0067 8.83884 9.98534 9.66899 10.4267C11.0883 11.1815 12.2699 11.536 14.2872 11.814C14.9989 11.9119 15.8979 12.0974 16.4279 12.2561C16.9298 12.4061 17.3685 12.5285 17.4021 12.5277C17.4357 12.5269 16.9394 12.0208 16.299 11.4026C14.6739 9.83296 14.0191 8.79705 13.7077 7.30163C13.5099 6.35178 13.5508 5.14376 13.7845 5.05533C13.8398 5.03401 14.24 5.36799 14.6739 5.79672C15.5537 6.66682 15.9403 6.96922 17.5038 8.01223C19.8349 9.56766 21.1414 10.9833 21.9587 12.838C22.1036 13.1665 22.2557 13.4468 22.2981 13.4602C22.3398 13.4736 22.4142 13.2928 22.4639 13.0575C22.5543 12.6264 22.4967 11.9877 22.3086 11.3465C22.2429 11.1223 22.2485 11.052 22.3406 10.9612C22.4374 10.8657 22.5471 10.8949 23.1211 11.1689C24.5396 11.8463 25.662 13.2352 26.1975 14.9762C26.2816 15.2493 26.4233 15.4317 26.8107 15.7649C27.833 16.6445 28.4414 17.4483 29.5141 19.3401C29.9184 20.053 30.4051 20.5836 30.8686 20.8173C31.1376 20.9531 31.3201 20.9792 31.8949 20.9642C32.4521 20.95 32.6378 20.9744 32.8099 21.0866C33.5808 21.5871 33.6321 23.5429 32.906 24.7375C32.0694 26.1137 30.6349 26.8488 28.7913 26.8456C27.2142 26.8433 26.1663 26.4848 24.0281 25.2183C22.3046 24.1974 21.8122 24.0206 20.8324 24.0711C20.3016 24.0987 20.0991 24.1469 19.8093 24.3143C18.137 25.2807 18.2835 27.4733 20.1295 29.1006C20.4233 29.3596 21.1446 29.8673 21.733 30.2281C22.3214 30.5897 23.3484 31.2387 24.0161 31.6706C27.1197 33.6808 28.7152 36.1822 28.4991 38.7001C28.4646 39.1051 28.4742 39.293 28.5303 39.293C28.5751 39.293 28.8969 39.1383 29.2443 38.9488C34.2108 36.2398 37.9829 31.6043 39.5496 26.2882C40.6031 22.7115 40.6799 18.9224 39.7681 15.4444C38.2759 9.75163 34.4326 5.05375 29.1283 2.43872C26.2656 1.02699 23.8744 0.450609 20.7075 0.407973C19.7164 0.39455 18.7806 0.398499 18.6261 0.416659L18.6229 0.418237ZM23.3356 18.297C22.9106 18.3642 22.7056 18.4589 22.2853 18.7842C21.9019 19.0803 21.8803 19.2753 22.2397 19.1971C22.6768 19.1024 23.5366 19.1458 23.9504 19.284C24.4644 19.4553 25.14 19.8999 25.401 20.237C25.7989 20.751 25.9398 20.5078 25.702 19.7183C25.4066 18.7376 24.3947 18.1297 23.3364 18.297H23.3356ZM30.2858 23.032C29.8888 23.34 30.0761 23.6613 30.6517 23.6613C30.9855 23.6613 31.2969 23.3708 31.2577 23.0968C31.2193 22.8299 30.5996 22.7889 30.2858 23.032ZM16.5439 30.8787C16.3782 31.3082 16.865 32.1096 17.2908 32.1096C17.78 32.1096 17.7343 31.3801 17.218 30.9324C16.877 30.6371 16.644 30.6181 16.5439 30.8787ZM19.8509 32.3891C19.6316 32.9521 20.4457 33.9319 20.8228 33.56C21.0581 33.3279 20.9541 32.9023 20.5594 32.4847C20.3296 32.2415 19.9294 32.1878 19.8509 32.3891ZM15.3271 33.8048C15.0942 34.3085 15.8643 35.2876 16.2662 34.9978C16.5479 34.7949 16.3598 34.1064 15.9323 33.7748C15.6506 33.5561 15.4376 33.5664 15.3279 33.8048H15.3271ZM18.8174 35.3002C18.7526 35.5553 19.0328 36.1664 19.2914 36.333C19.4026 36.4048 19.5772 36.4522 19.6788 36.438C20.0743 36.3827 19.8782 35.4281 19.421 35.1873C19.1449 35.0413 18.8695 35.0926 18.8174 35.2994V35.3002ZM22.8817 35.4416C22.644 35.6761 22.9514 36.4483 23.3661 36.6599C24.0273 36.997 24.1049 36.0148 23.4573 35.5118C23.2172 35.3255 23.0234 35.3018 22.8817 35.4416ZM17.0379 37.4155C16.7193 37.7297 17.2252 38.7317 17.7063 38.7396C17.9225 38.7427 18.0625 38.5966 18.0625 38.3677C18.0625 38.0724 17.7615 37.571 17.5054 37.4407C17.2212 37.2962 17.162 37.2931 17.0379 37.4155ZM21.6009 38.3629C21.2102 38.7482 21.9883 39.9413 22.4663 39.6894C22.7897 39.5189 22.6168 38.869 22.1421 38.4751C21.8667 38.2469 21.745 38.2216 21.6009 38.3629Z" fill="#b6b6b6" stroke="#b6b6b6" stroke-width="0.8" stroke-linejoin="round"/>
<path d="M180.94 29.826C179.518 29.826 178.429 29.475 177.673 28.773C176.935 28.053 176.566 27.027 176.566 25.695V18.594H174.325V16.002H176.566V11.79H179.563V16.002H183.208V18.594H179.563V25.128C179.563 25.758 179.707 26.235 179.995 26.559C180.301 26.883 180.742 27.045 181.318 27.045C181.498 27.045 181.696 27.009 181.912 26.937C182.128 26.865 182.371 26.73 182.641 26.532L183.748 28.827C183.28 29.151 182.812 29.394 182.344 29.556C181.876 29.736 181.408 29.826 180.94 29.826Z" fill="#b6b6b6"/>
<path d="M169.546 29.502V16.002H172.543V29.502H169.546ZM171.058 13.437C170.572 13.437 170.149 13.266 169.789 12.924C169.447 12.564 169.276 12.141 169.276 11.655C169.276 11.169 169.447 10.755 169.789 10.413C170.149 10.071 170.572 9.9 171.058 9.9C171.544 9.9 171.958 10.071 172.3 10.413C172.66 10.755 172.84 11.169 172.84 11.655C172.84 12.141 172.66 12.564 172.3 12.924C171.958 13.266 171.544 13.437 171.058 13.437Z" fill="#b6b6b6"/>
<path d="M159.49 29.826C158.428 29.826 157.51 29.61 156.736 29.178C155.98 28.746 155.395 28.071 154.981 27.153C154.567 26.235 154.36 25.056 154.36 23.616V16.002H157.384V22.914C157.384 23.976 157.51 24.804 157.762 25.398C158.014 25.992 158.356 26.406 158.788 26.64C159.238 26.874 159.751 26.991 160.327 26.991C161.353 27.009 162.145 26.676 162.703 25.992C163.261 25.308 163.54 24.327 163.54 23.049V16.002H166.537V29.502H163.702L163.567 27.585C163.135 28.305 162.568 28.863 161.866 29.259C161.182 29.637 160.39 29.826 159.49 29.826Z" fill="#b6b6b6"/>
<path d="M145.388 29.502V16.002H148.412V18.459C148.952 17.613 149.654 16.983 150.518 16.569C151.382 16.155 152.273 15.948 153.191 15.948V18.837C152.363 18.837 151.58 18.954 150.842 19.188C150.122 19.404 149.537 19.764 149.087 20.268C148.637 20.772 148.412 21.438 148.412 22.266V29.502H145.388Z" fill="#b6b6b6"/>
<path d="M131.914 29.502V10.602H143.659V13.464H135.046V18.756H142.417V21.618H135.046V29.502H131.914Z" fill="#b6b6b6"/>
<path d="M116.647 29.502V16.002H119.482L119.617 17.919C120.049 17.199 120.607 16.65 121.291 16.272C121.993 15.876 122.794 15.678 123.694 15.678C124.774 15.678 125.692 15.894 126.448 16.326C127.222 16.758 127.807 17.433 128.203 18.351C128.617 19.251 128.824 20.43 128.824 21.888V29.502H125.8V22.59C125.8 21.51 125.674 20.682 125.422 20.106C125.188 19.512 124.846 19.098 124.396 18.864C123.964 18.63 123.451 18.513 122.857 18.513C121.849 18.495 121.066 18.828 120.508 19.512C119.95 20.196 119.671 21.177 119.671 22.455V29.502H116.647Z" fill="#b6b6b6"/>
<path d="M107.708 29.826C106.358 29.826 105.152 29.529 104.09 28.935C103.046 28.323 102.227 27.486 101.633 26.424C101.039 25.362 100.742 24.138 100.742 22.752C100.742 21.366 101.03 20.142 101.606 19.08C102.2 18.018 103.019 17.19 104.063 16.596C105.107 15.984 106.304 15.678 107.654 15.678C109.004 15.678 110.201 15.984 111.245 16.596C112.289 17.19 113.099 18.018 113.675 19.08C114.269 20.142 114.566 21.366 114.566 22.752C114.566 24.138 114.278 25.362 113.702 26.424C113.126 27.486 112.316 28.323 111.272 28.935C110.228 29.529 109.04 29.826 107.708 29.826ZM107.708 27.045C108.446 27.045 109.103 26.865 109.679 26.505C110.255 26.127 110.705 25.623 111.029 24.993C111.353 24.345 111.515 23.598 111.515 22.752C111.515 21.906 111.344 21.168 111.002 20.538C110.678 19.89 110.228 19.386 109.652 19.026C109.076 18.648 108.41 18.459 107.654 18.459C106.898 18.459 106.232 18.639 105.656 18.999C105.08 19.359 104.63 19.863 104.306 20.511C103.982 21.159 103.82 21.906 103.82 22.752C103.82 23.598 103.982 24.345 104.306 24.993C104.648 25.623 105.107 26.127 105.683 26.505C106.277 26.865 106.952 27.045 107.708 27.045Z" fill="#b6b6b6"/>
<path d="M91.7592 35.253C90.8052 35.253 89.9412 35.172 89.1672 35.01C88.4112 34.848 87.7722 34.659 87.2502 34.443C86.7282 34.227 86.3232 34.02 86.0352 33.822L87.1962 31.392C87.4482 31.518 87.7812 31.671 88.1952 31.851C88.6272 32.049 89.1312 32.22 89.7072 32.364C90.2832 32.508 90.9312 32.58 91.6512 32.58C92.4252 32.58 93.1182 32.418 93.7302 32.094C94.3422 31.788 94.8192 31.311 95.1612 30.663C95.5032 30.015 95.6742 29.187 95.6742 28.179V26.829C95.2062 27.585 94.5942 28.179 93.8382 28.611C93.1002 29.025 92.2542 29.232 91.3002 29.232C90.0762 29.232 89.0052 28.953 88.0872 28.395C87.1872 27.837 86.4762 27.063 85.9542 26.073C85.4502 25.065 85.1982 23.904 85.1982 22.59C85.1982 21.186 85.4502 19.971 85.9542 18.945C86.4762 17.919 87.1872 17.118 88.0872 16.542C89.0052 15.966 90.0762 15.678 91.3002 15.678C92.2542 15.678 93.1002 15.894 93.8382 16.326C94.5942 16.758 95.2062 17.379 95.6742 18.189V16.002H98.6982V28.098C98.6982 29.628 98.4102 30.924 97.8342 31.986C97.2582 33.066 96.4482 33.876 95.4042 34.416C94.3602 34.974 93.1452 35.253 91.7592 35.253ZM92.1372 26.667C92.8212 26.667 93.4152 26.487 93.9192 26.127C94.4412 25.767 94.8462 25.281 95.1342 24.669C95.4222 24.039 95.5662 23.319 95.5662 22.509C95.5662 21.681 95.4222 20.961 95.1342 20.349C94.8462 19.719 94.4412 19.233 93.9192 18.891C93.3972 18.531 92.7942 18.351 92.1102 18.351C91.3902 18.351 90.7512 18.531 90.1932 18.891C89.6532 19.233 89.2212 19.719 88.8972 20.349C88.5912 20.961 88.4382 21.681 88.4382 22.509C88.4382 23.319 88.5912 24.039 88.8972 24.669C89.2212 25.281 89.6622 25.767 90.2202 26.127C90.7782 26.487 91.4172 26.667 92.1372 26.667Z" fill="#b6b6b6"/>
<path d="M76.682 29.826C75.062 29.826 73.802 29.466 72.902 28.746C72.02 28.026 71.579 27.009 71.579 25.695C71.579 24.291 72.047 23.22 72.983 22.482C73.937 21.744 75.26 21.375 76.952 21.375H80.381C80.273 20.385 79.994 19.629 79.544 19.107C79.094 18.585 78.428 18.324 77.546 18.324C76.898 18.324 76.331 18.459 75.845 18.729C75.359 18.999 74.945 19.422 74.603 19.998L71.957 19.026C72.245 18.432 72.623 17.883 73.091 17.379C73.577 16.857 74.18 16.443 74.9 16.137C75.638 15.831 76.52 15.678 77.546 15.678C78.86 15.678 79.958 15.939 80.84 16.461C81.722 16.965 82.37 17.694 82.784 18.648C83.216 19.602 83.432 20.754 83.432 22.104L83.351 29.502H80.57L80.489 27.855C80.129 28.485 79.625 28.971 78.977 29.313C78.347 29.655 77.582 29.826 76.682 29.826ZM77.06 27.288C77.726 27.288 78.311 27.144 78.815 26.856C79.337 26.55 79.733 26.145 80.003 25.641C80.291 25.137 80.435 24.579 80.435 23.967V23.697H77.924C76.718 23.697 75.872 23.868 75.386 24.21C74.9 24.534 74.657 25.002 74.657 25.614C74.657 26.136 74.864 26.55 75.278 26.856C75.71 27.144 76.304 27.288 77.06 27.288Z" fill="#b6b6b6"/>
<path d="M63.0664 29.502V16.002H66.0904V18.459C66.6304 17.613 67.3324 16.983 68.1964 16.569C69.0604 16.155 69.9514 15.948 70.8694 15.948V18.837C70.0414 18.837 69.2584 18.954 68.5204 19.188C67.8004 19.404 67.2154 19.764 66.7654 20.268C66.3154 20.772 66.0904 21.438 66.0904 22.266V29.502H63.0664Z" fill="#b6b6b6"/>
<path d="M45.4 29.502V10.602H51.34C53.194 10.602 54.832 11.007 56.254 11.817C57.694 12.609 58.819 13.716 59.629 15.138C60.457 16.56 60.871 18.198 60.871 20.052C60.871 21.888 60.457 23.517 59.629 24.939C58.819 26.361 57.694 27.477 56.254 28.287C54.832 29.097 53.194 29.502 51.34 29.502H45.4ZM48.532 26.586H51.34C52.222 26.586 53.05 26.424 53.824 26.1C54.598 25.758 55.273 25.29 55.849 24.696C56.425 24.102 56.875 23.409 57.199 22.617C57.523 21.825 57.685 20.97 57.685 20.052C57.685 19.134 57.523 18.279 57.199 17.487C56.875 16.695 56.425 16.002 55.849 15.408C55.273 14.814 54.598 14.355 53.824 14.031C53.05 13.689 52.222 13.518 51.34 13.518H48.532V26.586Z" fill="#b6b6b6"/>
</svg>
